<?xml version="1.0" encoding="utf-8"?>
<svg version="1.0" xmlns="http://www.w3.org/2000/svg" width="1024px" height="527px" viewBox="0 0 1024 527" preserveAspectRatio="xMidYMid meet">
 <g fill="#343474">
  <path d="M635.7 371.9 c-12.7 -1.3 -32.2 -5.4 -45 -9.5 -6.2 -2 -11.5 -3.9 -11.9 -4.3 -1 -0.9 7.6 -45.6 8.7 -45.5 0.6 0 6.2 2.6 12.5 5.7 20.9 10.2 38.8 14.7 59 14.7 20.3 0 34 -6.3 40.1 -18.3 2.7 -5.3 2.3 -13.9 -0.9 -18.4 -3 -4.2 -12.7 -8.1 -33.2 -13.2 -9.1 -2.3 -19.4 -5.1 -23 -6.3 -21 -6.7 -34.6 -19.8 -38.9 -37.3 -1.8 -7 -1.6 -22.7 0.4 -30.9 7 -30.6 35.6 -51.2 77 -55.6 18.3 -2 52.6 1.4 79.5 7.8 7 1.7 7.5 2 7.2 4.2 -0.4 2.8 -7 37.2 -7.9 40.7 -0.5 2.2 -0.5 2.2 -4.2 0.4 -7.2 -3.7 -22.8 -9 -33.1 -11.3 -8.5 -1.8 -13.4 -2.3 -25.5 -2.3 -17.6 0 -25 1.7 -33.5 7.3 -7 4.8 -9.4 8.9 -9.5 16.3 0 11.3 4.1 13.9 35.2 21.8 31.7 8.2 42.6 12.8 52.6 22.6 11.2 10.9 15.3 22.6 14.4 40.6 -1.8 35.3 -25.7 60.1 -67.2 69.4 -8.4 1.9 -39.9 2.8 -52.8 1.4z"/>
  <path d="M178 368.8 c0 -1.8 1.4 -10.8 3.2 -20.1 2.9 -15.3 3.4 -17 5.5 -17.8 1.3 -0.5 2.2 -1.2 2.1 -1.6 -0.1 -0.5 0.4 -3.5 1.1 -6.8 2.4 -11.8 2.4 -11.5 0.7 -11.5 -0.9 0 -1.6 -0.6 -1.6 -1.2 0 -2.3 13.8 -71.7 14.5 -72.8 0.3 -0.5 1.2 -1 1.9 -1 0.8 0 1.7 -2 2.3 -5 0.9 -4.6 0.9 -4.8 -0.9 -3.9 -1 0.5 -1.8 0.6 -1.8 0.1 0 -0.5 1.5 -8.4 3.4 -17.7 2.6 -13 3.8 -17.2 5.4 -18.4 1.1 -0.9 2.4 -3.7 3 -6.3 0.9 -4.6 0.9 -4.7 -1.1 -3.7 -1.8 1 -1.9 0.9 -1.4 -1.7 0.3 -1.6 1.6 -8.2 2.8 -14.6 l2.3 -11.8 14.3 0 c12.2 0 14.2 0.2 13.7 1.5 -0.5 1.3 1.2 1.5 12 1.5 10.3 0 12.8 -0.3 13.2 -1.5 0.5 -1.3 5.5 -1.5 36.5 -1.5 31.4 0 35.8 0.2 35.3 1.5 -0.5 1.3 1.3 1.5 12.5 1.5 14.6 0 14 -0.4 12.2 7.3 -0.8 3.2 -0.7 3.6 0.5 2.6 0.8 -0.7 1.7 -0.9 2 -0.6 0.5 0.4 -4.7 28.7 -6.2 34 -0.5 1.6 -2.6 1.7 -25 1.7 -21.9 0 -27.5 -0.6 -23.1 -2.3 0.6 -0.3 -4.7 -0.6 -11.9 -0.6 -10 -0.1 -13.5 0.2 -15 1.4 -1.3 1 -4.5 1.4 -10.1 1.5 l-8.1 0 -1 4.8 c-0.6 2.6 -1.3 6.4 -1.7 8.4 -0.4 2.2 -1.6 4.3 -3 5.2 -1.6 1.1 -2.4 2.8 -2.9 6.5 -0.4 2.8 -1 5.9 -1.3 6.9 -0.6 1.5 -0.5 1.5 1 0.3 1.1 -0.9 1.7 -1 1.7 -0.2 0 0.8 11 1.1 39.5 1.1 34.6 0 39.4 0.2 38.9 1.5 -0.5 1.1 0.1 1.5 2.5 1.5 1.7 0 3.1 0.2 3.1 0.4 0 0.6 -2.7 14 -3.6 17.5 l-0.5 2.5 2 -2.5 c2.7 -3.2 2.7 -2.2 -0.5 13.9 l-2.7 13.2 -20 0 c-17.6 0 -19.8 -0.2 -18.7 -1.5 1.1 -1.3 0.2 -1.5 -7.1 -1.5 -5.8 0.1 -9 0.5 -10.3 1.5 -1.5 1.2 -5.3 1.5 -16.7 1.5 l-14.7 0 -2.8 14.8 c-2.4 12.1 -3.3 15 -5.1 16.5 -1.3 1 -2.3 2.6 -2.2 3.5 0 1.2 0.3 1.1 0.9 -0.5 0.5 -1.3 1.4 -2.3 2 -2.3 0.6 0 0.8 1 0.5 2.3 -0.2 1.2 -1.8 9.3 -3.5 17.9 -2.4 12.4 -3.5 16.2 -5.3 18.2 -1.6 1.7 -2.8 4.8 -3.6 9.6 l-1.3 7 -11.3 0 c-8.8 0 -11.5 0.3 -12.5 1.5 -1 1.2 -4.3 1.5 -17.6 1.5 l-16.4 0 0 -3.2z"/>
  <path d="M385 370.5 c1.1 -1.3 0.8 -1.5 -1.8 -1.5 -2 0 -3 -0.5 -2.8 -1.2 0.1 -0.7 0.1 -1 -0.1 -0.5 -0.3 0.4 -1.2 0.7 -2 0.7 -1.1 0 -1.4 -0.7 -1 -2.2 0.3 -1.3 2.9 -14.2 5.7 -28.8 7 -36 7 -36 8.5 -36 1.8 0 2.2 -1.5 5.4 -17.2 2.6 -12.8 2.7 -13.6 1 -12.7 -1.1 0.5 -1.9 0.6 -1.9 0.2 0 -0.4 2.3 -12.9 5.2 -27.7 4.3 -22 5.6 -27 7 -27.4 2.2 -0.5 2 0.1 6.3 -22.1 4 -21.2 4 -20.5 2 -19.7 -0.9 0.3 -1.5 0 -1.5 -0.9 0 -1.2 2.1 -12.2 3.5 -18.3 0.5 -2.1 1 -2.2 11.5 -2.2 9.3 0 10.9 0.2 10.4 1.5 -0.5 1.3 7 1.5 64.6 1.5 51.8 0 65.1 0.3 64.8 1.3 -0.3 0.6 -2.2 10.1 -4.3 21 l-3.9 19.7 -40.3 0 c-35.2 0 -40.3 0.2 -40.3 1.5 0 1.1 -1.2 1.5 -4.9 1.5 l-4.9 0 -0.7 4.8 c-0.4 2.8 -1.6 5.7 -3 7.2 -1.7 1.8 -2.9 5.4 -4.4 12.9 -1.2 5.7 -2.1 10.5 -2.1 10.7 0 0.2 19.6 0.4 43.5 0.4 l43.5 0 0 2.3 c-0.1 1.2 -1.8 10.5 -3.8 20.7 l-3.8 18.5 -29.3 0.3 c-24.4 0.2 -29.6 0.5 -30.5 1.7 -0.8 1.1 -4 1.5 -13.1 1.7 l-12 0.3 -2.1 11.4 c-1.7 8.9 -2.6 11.7 -4.3 13 -1.6 1.2 -2.6 3.9 -3.8 10.3 -0.9 4.8 -1.4 9 -1.1 9.4 1.3 1.3 10 0.5 11.7 -1 1.4 -1.3 4.4 -1.6 15.4 -1.6 12.4 0 13.7 0.2 13.7 1.8 0 1.6 1.8 1.7 27 1.4 21.4 -0.2 27 0 27 1 0 0.7 -1.6 10.2 -3.7 21.1 l-3.7 19.7 -38.2 0 c-32.7 0 -38.3 0.2 -39.4 1.5 -1.1 1.3 -6.3 1.5 -35.7 1.5 -30.6 0 -34.4 -0.2 -33.3 -1.5z"/>
  <path d="M790.6 366.3 c0.3 -1.6 9.6 -49.4 20.7 -106.3 l20.2 -103.5 30.6 -0.3 30.7 -0.2 24.3 73.6 c13.4 40.5 24.5 73.2 24.6 72.7 0.4 -1.2 28.3 -144.6 28.3 -145.5 0 -0.4 11.7 -0.8 26 -0.8 14.3 0 26 0.2 26 0.5 0 0.3 -9.2 47.9 -20.5 105.7 -11.3 57.8 -20.5 105.4 -20.5 105.9 0 0.5 -13.8 0.9 -30.8 0.9 l-30.8 0 -24.4 -73.7 c-13.4 -40.6 -24.6 -72.9 -24.8 -71.8 -0.2 1.1 -6.4 33.3 -13.8 71.5 -7.3 38.2 -13.6 70.5 -13.9 71.8 l-0.5 2.2 -26 0 -25.9 0 0.5 -2.7z"/>
 </g>
 <g fill="#f7d635">
  <path d="M301.6 518.6 c-2 -1.8 -3.6 -4.2 -3.6 -5.3 0 -1 -0.4 -2.3 -1 -2.9 -1.9 -1.9 1.7 -8.5 8.2 -15.2 3.5 -3.7 7.5 -8.3 8.8 -10.2 1.4 -1.9 5.8 -6.6 9.9 -10.5 4 -3.8 9.2 -9.4 11.4 -12.4 2.2 -2.9 7.7 -9 12.3 -13.5 4.6 -4.5 8.4 -8.6 8.4 -9.2 0 -0.5 4.9 -5.9 11 -11.9 6 -6.1 11 -11.5 11 -12 0 -0.6 2.7 -3.7 6 -7 5.5 -5.4 7.3 -8.5 5.2 -8.5 -0.5 0 -1.7 0.9 -2.7 2 -1 1.1 -2.6 2 -3.7 2 -1 0 -1.8 0.5 -1.8 1 0 0.6 -0.7 1 -1.5 1 -0.8 0 -1.5 0.5 -1.5 1 0 0.6 -0.7 1 -1.5 1 -0.8 0 -1.5 0.5 -1.5 1 0 0.6 -0.5 1 -1 1 -0.6 0 -2 0.8 -3.1 1.8 -1 1.1 -3.2 2.5 -4.7 3.3 -1.5 0.7 -5.3 3 -8.4 5.1 -3.1 2.1 -6.1 3.8 -6.6 3.8 -0.5 0 -1.7 0.9 -2.7 2 -1 1.1 -2.3 2 -3 2 -0.7 0 -2 0.9 -3 2 -1 1.1 -2.3 2 -2.8 2 -0.6 0 -2.6 1.2 -4.6 2.8 -3.7 2.8 -5.9 4.1 -12.1 7.3 -1.9 0.9 -4.5 2.7 -5.7 3.8 -1.2 1.2 -2.6 2.1 -3.1 2.1 -0.5 0 -1.7 0.9 -2.7 2 -1 1.1 -2.4 2 -3 2 -0.7 0 -1.8 0.7 -2.5 1.5 -0.7 0.8 -2.4 2.1 -3.9 2.8 -5 2.6 -10.6 5.9 -11.1 6.6 -0.3 0.4 -1.2 1.1 -2 1.5 -2.4 1.1 -4.9 2.7 -14.7 9.4 -5.1 3.4 -9.5 6.2 -9.8 6.2 -0.3 0 -3.8 2.2 -7.8 4.8 -10.3 6.9 -9.7 6.7 -9.7 3.4 0 -2.4 0.9 -3.5 5.7 -6.7 3.2 -2.1 6.7 -4.4 7.8 -5 4.3 -2.3 13.5 -8.8 13.5 -9.5 0 -0.4 0.8 -1 1.8 -1.4 1.7 -0.6 5.3 -2.7 6.2 -3.7 1.2 -1.2 10.2 -6.9 11.1 -6.9 0.5 0 0.9 -0.4 0.9 -0.8 0 -0.5 1.2 -1.5 2.8 -2.3 1.5 -0.8 3.4 -2 4.2 -2.8 0.8 -0.8 3.7 -2.9 6.5 -4.7 2.8 -1.7 5.7 -3.9 6.4 -4.8 0.7 -0.9 2 -1.6 2.7 -1.6 0.8 0 1.4 -0.4 1.4 -0.8 0 -0.4 1.3 -1.6 3 -2.5 1.6 -1 3.5 -2.3 4.2 -3 0.7 -0.7 2.8 -2.3 4.6 -3.6 2.9 -2 3.2 -2.7 3.2 -7.2 0 -2.7 -0.4 -4.9 -1 -4.9 -0.6 0 -1 -2.7 -1 -6 0 -3.3 -0.4 -6 -1 -6 -0.5 0 -1 -2.2 -1 -5 0 -2.7 -0.4 -5 -1 -5 -0.5 0 -1 -1.3 -1 -3 0 -3.1 -1.9 -4 -4.3 -2 -6 5.1 -10.6 8 -12.4 8 -1.4 0 -2.3 0.6 -2.3 1.5 0 1.8 -9.9 11.4 -11.7 11.5 -0.7 0 -1.3 0.4 -1.3 0.9 0 0.5 -3 3.5 -6.7 6.5 -5.2 4.3 -7.5 5.6 -10 5.6 -2.9 0 -3.3 0.3 -3.3 2.8 -0.1 2 -1.2 3.5 -4.1 5.7 -2.2 1.7 -4.6 3.6 -5.4 4.3 -0.7 0.6 -2.3 1.2 -3.4 1.2 -1.3 0 -2.1 0.8 -2.3 2.3 -0.2 1.7 -1.1 2.3 -3.6 2.5 l-3.3 0.3 1.6 -2.5 c1 -1.4 2.2 -2.6 2.7 -2.6 0.6 0 3.3 -2.3 6.2 -5.1 2.8 -2.8 6.2 -5.7 7.6 -6.4 1.4 -0.7 3.7 -2.6 5.2 -4.1 3.7 -4 7.6 -7.5 12.2 -10.8 2.1 -1.6 5.8 -4.9 8.1 -7.3 2.3 -2.3 4.8 -4.3 5.5 -4.3 0.7 0 4 -2.8 7.4 -6.3 3.3 -3.4 7.4 -7.1 8.9 -8.2 2.7 -1.9 8.6 -7 16.5 -14.2 1.9 -1.8 4 -3.3 4.5 -3.3 0.6 0 0.7 -0.3 0.4 -0.7 -0.4 -0.3 -0.1 -1.3 0.6 -2.1 1 -1.3 0.9 -1.4 -0.3 -0.7 -0.8 0.4 -3.1 2.1 -5.1 3.7 -2 1.5 -4 2.8 -4.4 2.8 -0.4 0 -3 1.6 -5.9 3.5 -2.9 1.9 -5.8 3.5 -6.4 3.5 -0.6 0 -1.5 0.6 -1.9 1.3 -0.8 1.3 -3.9 3.1 -11 6.7 -2.3 1.2 -5.4 3.3 -6.8 4.6 -1.4 1.3 -3 2.4 -3.4 2.4 -0.5 0 -1.4 0.7 -2.1 1.5 -0.7 0.8 -2.1 1.5 -3.1 1.5 -1.1 0 -1.9 0.5 -1.9 1 0 0.6 -0.6 1 -1.4 1 -0.7 0 -2.4 1 -3.8 2.3 -1.3 1.2 -3.7 2.9 -5.4 3.7 -1.6 0.8 -3.5 2.1 -4.2 2.8 -0.7 0.6 -1.9 1.2 -2.6 1.2 -0.7 0 -2.3 1.1 -3.6 2.5 -1.3 1.4 -2.8 2.5 -3.2 2.5 -0.5 0 -2.9 1.4 -5.3 3 -2.4 1.7 -4.6 3 -5 3 -0.3 0 -3.9 2.3 -8 5 -4.1 2.8 -7.8 5 -8.2 5 -0.5 0 -2.4 1.3 -4.3 2.8 -5.4 4.4 -7 4.7 -7 1.3 0 -2.2 0.9 -3.4 4 -5.5 2.2 -1.4 4.3 -2.6 4.7 -2.6 0.5 0 2.6 -1.4 4.7 -3 2.2 -1.7 5 -3 6.3 -3 1.4 0 2.3 -0.6 2.3 -1.5 0 -0.9 0.8 -1.9 1.7 -2.2 1 -0.4 3.9 -2.2 6.4 -4 2.6 -1.8 5.1 -3.3 5.8 -3.3 0.6 0 1.1 -0.5 1.1 -1 0 -0.6 4.6 -4 10.3 -7.6 16.1 -10.4 31 -20.5 33.3 -22.5 1.1 -1.1 2.4 -1.9 2.8 -1.9 0.4 0 3.2 -1.9 6.2 -4.2 5.2 -4.1 5.4 -4.5 5.4 -9 0 -2.7 -0.4 -4.8 -1 -4.8 -0.5 0 -1 -0.7 -1 -1.5 0 -1.9 -0.3 -1.9 -4.2 0.3 -1.8 1 -6 3.4 -9.3 5.2 -3.2 1.8 -8.2 4.7 -11 6.4 -6.9 4.4 -10 5.6 -14 5.6 -3.4 0 -3.5 -0.1 -3.5 -3.7 0.1 -4.2 0.9 -5.5 6 -9.7 6.4 -5.2 20.4 -18 26.3 -23.9 3.8 -3.9 5.7 -6.7 5.7 -8.3 0 -1.3 -0.4 -2.4 -1 -2.4 -0.5 0 -1 -1.6 -1 -3.5 0 -1.9 -0.2 -3.5 -0.6 -3.5 -0.7 0 -15.3 10.8 -17.9 13.3 -1.1 1 -3.3 2.8 -4.8 4 -1.5 1.2 -3.8 3 -5 4.1 -1.2 1 -3.3 2.6 -4.7 3.4 -1.4 0.9 -2.9 2.2 -3.3 2.9 -0.4 0.7 -1.1 1.3 -1.5 1.3 -0.5 0 -3.7 2.7 -7.2 6 -3.6 3.3 -7 6 -7.6 6 -0.7 0 -1.4 0.7 -1.8 1.5 -0.3 0.8 -1 1.5 -1.6 1.5 -0.5 0 -2.7 1.6 -4.7 3.5 -2 1.9 -4 3.5 -4.4 3.5 -0.3 0 -3 2.2 -6 5 -3.8 3.5 -6.2 5 -8.1 5 -2.2 0 -2.8 0.5 -2.8 2.3 0 2.4 -5.8 7.7 -8.4 7.7 -0.9 0 -1.6 0.7 -1.6 1.5 0 1 -1 1.5 -3.1 1.5 -2.8 0 -3 -0.2 -1.8 -1.7 1.9 -2.4 7.7 -7.5 10.8 -9.5 1.4 -1 4.6 -3.6 7.1 -5.8 12 -10.9 14.6 -13 15.8 -13 0.6 0 1.2 -0.4 1.2 -1 0 -0.5 0.5 -1 1.1 -1 0.5 0 2.2 -1.3 3.7 -2.8 1.5 -1.6 6.3 -5.7 10.7 -9.3 4.4 -3.5 9 -7.4 10.2 -8.6 1.2 -1.2 3.9 -3.4 6 -5 2.1 -1.5 4.8 -3.7 6 -4.8 2.1 -2 9 -7.9 14.8 -12.8 1.7 -1.4 2.7 -2.9 2.3 -3.3 -0.8 -0.8 -5.2 1.8 -8.6 5.2 -1.3 1.2 -3.7 2.6 -5.3 2.9 -1.6 0.4 -3.2 1.2 -3.6 1.8 -0.9 1.4 -5.6 4.4 -9.5 6 -1.6 0.6 -2.8 1.5 -2.8 2 0 0.4 -1.9 1.7 -4.2 2.8 -5.8 2.7 -8.1 4.1 -10.2 6.2 -1 0.9 -2.3 1.7 -3 1.7 -0.8 0 -1.9 0.7 -2.6 1.5 -0.7 0.8 -3.6 2.6 -6.6 4.1 -2.9 1.4 -6.5 3.7 -8 5.1 l-2.6 2.4 0.6 -3.7 c0.7 -3.5 3.9 -7.3 6.2 -7.4 0.6 0 2.3 -1.1 3.7 -2.4 1.5 -1.4 3.7 -2.8 4.9 -3.2 1.3 -0.4 3 -1.4 3.8 -2.4 0.8 -0.9 6.5 -4.9 12.5 -8.8 6.1 -3.9 11.5 -7.6 12.2 -8.1 0.7 -0.6 3.5 -2.5 6.4 -4.1 2.8 -1.7 5.7 -3.6 6.4 -4.3 0.7 -0.7 4 -3.2 7.4 -5.6 5 -3.6 6.1 -4.9 6.1 -7.2 0 -1.6 -0.4 -2.9 -1 -2.9 -0.5 0 -1 -1.6 -1 -3.5 0 -1.9 -0.2 -3.5 -0.5 -3.5 -0.9 0 -15.2 8.3 -36.6 21.1 -12 7.2 -20.9 11.9 -22.5 11.9 -2 0 -2.4 -0.3 -1.7 -1.2 0.6 -0.7 1.1 -2.8 1.1 -4.5 0.1 -4.4 2.3 -10.3 3.8 -10.3 0.7 0 2.1 -1.1 3.2 -2.5 1.1 -1.4 2.5 -2.5 3.2 -2.5 1.2 0 3.4 -1.9 4.1 -3.6 0.2 -0.6 4.2 -4.5 8.9 -8.7 8.4 -7.6 8.5 -7.7 14 -7.7 l5.5 0 -3.5 3.1 c-1.9 1.7 -5.1 4.2 -7 5.7 -1.9 1.5 -6.7 5.5 -10.6 8.9 -3.9 3.5 -7.6 6.3 -8.1 6.3 -0.5 0 -2.6 1.7 -4.5 3.8 -1.9 2 -4.8 4.7 -6.4 5.9 l-2.9 2.2 3.5 -1.2 c1.9 -0.6 6.1 -2.9 9.2 -4.9 3.1 -2.1 6 -3.8 6.3 -3.8 0.4 0 3.9 -2.2 7.9 -5 4 -2.7 7.6 -5 8 -5 0.3 0 4 -2.2 8 -5 4 -2.7 7.7 -5 8 -5 0.4 0 2.7 -1.3 5.1 -3 l4.4 -3 16.9 0 16.9 0 2.1 -10.7 c2.4 -11.9 3.7 -14.5 8.2 -16.4 1.6 -0.8 3 -1.7 3 -2.1 0 -0.5 0.7 -0.8 1.5 -0.8 0.8 0 1.5 -0.4 1.5 -1 0 -0.5 0.8 -1 1.8 -1 1.1 0 2.7 -1 3.8 -2.1 1 -1.2 2.8 -2.5 3.9 -3 1.1 -0.5 3.4 -1.8 5 -2.9 1.7 -1.1 3.8 -2.3 4.8 -2.6 0.9 -0.4 1.7 -1 1.7 -1.4 0 -0.5 1.2 -1.3 2.8 -1.9 3.3 -1.2 8.3 -4.2 9.7 -5.7 1.7 -1.8 6.9 -5.1 9.3 -5.8 1.2 -0.4 3.4 -1.8 4.9 -3.2 3.6 -3.3 5.6 -3.2 4.9 0.4 -0.3 1.5 -2.6 13.5 -5.2 26.7 l-4.7 23.9 -5.1 4.8 c-2.8 2.6 -5.6 4.8 -6.3 4.8 -0.6 0 -2.3 1.4 -3.6 3 -1.4 1.7 -2.9 3 -3.2 3 -0.4 0 -2 1.4 -3.5 3 -1.5 1.7 -3.2 3 -3.7 3 -0.4 0 -3 2.3 -5.7 5 -2.7 2.8 -5.4 5 -5.9 5 -0.5 0 -4.4 3 -8.6 6.8 -4.2 3.7 -9.4 8.1 -11.5 9.7 -5.5 4.3 -10.7 8.7 -12.5 10.8 -0.8 0.9 -2 1.7 -2.7 1.7 -0.6 0 -2.4 1.5 -4.1 3.3 -3.7 4 -8.1 7.7 -9.1 7.7 -0.4 0 -2.2 1.5 -4.1 3.3 -1.9 1.7 -4.7 4.1 -6.1 5.2 -1.5 1.1 -5.2 4.3 -8.3 7.1 -7 6.5 -4.2 6.1 6 -0.8 4 -2.6 7.5 -4.8 7.8 -4.8 0.3 0 3.9 -2.2 8 -5 4.1 -2.7 7.7 -5 8 -5 0.3 0 3.3 -1.8 6.5 -4 3.2 -2.2 6.4 -4 6.9 -4 0.6 0 1.1 -0.4 1.1 -1 0 -0.5 0.7 -1 1.5 -1 0.8 0 1.5 -0.4 1.5 -1 0 -0.5 0.5 -1 1 -1 0.6 0 4.4 -2.2 8.5 -5 4.1 -2.7 7.7 -5 8 -5 0.3 0 3.9 -2.2 8 -5 4.1 -2.7 7.7 -5 8.1 -5 0.3 0 1.8 -0.8 3.2 -1.9 4.4 -3 10.2 -6.1 11.6 -6.1 0.8 0 1.7 -0.6 2 -1.2 0.7 -1.6 0.8 -2.2 -5.9 32.7 -6.2 31.8 -7.1 35.5 -8.9 35.5 -0.6 0 -1.8 0.9 -2.6 2 -0.8 1.1 -2 2 -2.6 2 -0.7 0 -2.3 1.3 -3.7 2.9 -1.3 1.6 -5.2 5 -8.6 7.6 -3.4 2.6 -6.1 4.9 -5.9 5 0.7 0.7 5.7 -0.8 5.2 -1.6 -0.3 -0.5 0 -0.9 0.6 -0.9 0.6 0 3.1 -1.3 5.5 -3 2.4 -1.6 4.6 -3 5 -3 0.3 0 3.9 -2.3 8 -5 l7.4 -5 34.1 0.2 34.1 0.3 -8.4 8.5 c-4.6 4.7 -8.8 9.2 -9.3 10.1 -0.5 0.9 -5.4 6.6 -11 12.5 -10.4 11.3 -32.3 35.2 -35.8 39.1 -2.6 3.1 -1.4 4 2.1 1.5 6.7 -4.7 10.4 -6.2 15.6 -6.2 4.8 0 5.6 0.3 8.7 3.8 4.5 4.8 6.5 8.3 5.2 9.1 -0.5 0.3 -1.2 1.7 -1.3 3.1 -0.4 2.5 -8.3 11 -10.3 11 -0.6 0 -3.4 1.7 -6.1 3.8 -2.8 2 -6.4 4.4 -8 5.2 -1.7 0.8 -4.6 2.7 -6.5 4.2 -1.9 1.6 -4 2.8 -4.8 2.8 -0.7 0 -4.6 2.3 -8.7 5 -4.1 2.8 -7.9 5 -8.5 5 -0.5 0 -1 0.5 -1 1 0 0.6 -0.5 1 -1 1 -0.6 0 -2 0.8 -3.1 1.9 -1.1 1 -4.1 2.9 -6.7 4.2 -2.6 1.3 -5.5 3.1 -6.5 4 -1 0.9 -3.8 2.7 -6.2 3.9 -2.5 1.3 -5.2 3.1 -6.1 4.1 -1 1.1 -2.1 1.9 -2.6 1.9 -0.5 0 -2.9 1.4 -5.3 3 -2.4 1.7 -4.6 3 -5 3 -0.4 0 -2.6 1.4 -5 3 -2.4 1.7 -5.5 3 -6.9 3 -2.2 0 -2.6 -0.4 -2.6 -3 0 -1.6 0.4 -3 0.8 -3 1 0 16.4 -9.7 17.1 -10.8 0.3 -0.4 3.6 -2.8 7.4 -5.2 3.7 -2.4 6.7 -4.8 6.7 -5.2 0 -0.4 0.5 -0.8 1.1 -0.8 3.1 0 5.5 -7.9 2.9 -9.5 -0.5 -0.3 -1 -1.7 -1 -3 0 -1.3 -0.4 -2.7 -1 -3 -0.5 -0.3 -1 -3 -1 -5.9 0 -9.5 -1.2 -9 -15.3 5.4 -7 7.2 -13.4 13 -14.2 13 -0.8 0 -1.5 0.9 -1.5 2 0 1.5 -0.7 2 -2.5 2 -2 0 -2.5 0.5 -2.5 2.6 0 1.5 -1.3 4.1 -3 6.1 -4.5 5.1 -4 6.9 3.5 13.1 0.8 0.7 1.5 2.2 1.5 3.2 0 3.1 -3.4 2.4 -7.4 -1.4z"/>
  <path d="M214 509 c0 -2.8 0.3 -3 3.5 -3 1.9 0 3.5 0.3 3.5 0.6 0 0.8 -2.2 2.7 -4.8 4.2 -2.1 1.1 -2.2 1 -2.2 -1.8z"/>
  <path d="M243 450.4 c0 -0.4 1.7 -2.2 3.8 -4.1 l3.7 -3.4 0.3 2.5 c0.2 1.5 -0.3 3.3 -1.2 4.1 -1.4 1.4 -6.6 2.1 -6.6 0.9z"/>
  <path d="M207.5 396 c0.3 -0.5 1.9 -1.9 3.5 -3 l3 -2.1 0 3 c0 2.9 -0.3 3.1 -3.6 3.1 -2 0 -3.3 -0.4 -2.9 -1z"/>
  <path d="M185.2 383.4 c0.2 -1.6 1.4 -3.2 3.3 -4.2 1.7 -0.9 3.2 -2 3.3 -2.4 0.2 -0.5 2.1 -0.8 4.3 -0.8 2.1 0 3.9 0.3 3.9 0.8 0 0.9 -12.6 9.2 -14.1 9.2 -0.5 0 -0.9 -1.2 -0.7 -2.6z"/>
  <path d="M201 374.1 c0 -3.6 2.6 -5.1 8.6 -5.1 3.9 0 3.8 1.2 -0.4 3.2 -1.5 0.8 -3.9 2.2 -5.4 3.2 l-2.8 1.8 0 -3.1z"/>
  <path d="M182.5 333.6 c2.2 -3.3 5.8 -3.5 5.3 -0.3 -0.2 1.7 -1.1 2.3 -3.6 2.5 l-3.3 0.3 1.6 -2.5z"/>
  <path d="M457.8 324.1 c1.8 -1.5 4.5 -3.4 6 -4.1 1.5 -0.7 3.5 -1.6 4.4 -2.1 3.8 -2 8.3 -1 12.6 2.7 7 6 6.3 6.4 -11 6.4 l-15.3 -0.1 3.3 -2.8z"/>
  <path d="M180 314.1 c0 -2.4 0.4 -3.1 1.9 -3.1 1 0 2.1 -0.7 2.5 -1.5 0.3 -0.8 1.5 -1.5 2.6 -1.5 1.1 0 2 -0.7 2 -1.5 0 -0.8 0.9 -1.5 2 -1.5 1.2 0 2 0.7 2 1.8 0 2.3 -1 3.5 -4.5 5.2 -1.6 0.8 -4.2 2.3 -5.7 3.3 l-2.8 1.8 0 -3z"/>
  <path d="M447.7 304.8 c0.4 -1.8 1.6 -8.2 2.8 -14.3 l2 -11 14.4 -0.3 c7.8 -0.1 14.1 0.1 13.9 0.6 -0.5 1.4 -8.5 8.2 -9.5 8.2 -0.6 0 -4.1 3.1 -7.9 7 -3.8 3.8 -7.4 7 -8 7 -0.6 0 -1.9 0.9 -3 2.1 -1 1.1 -2.7 2.5 -3.6 3 -1.6 0.8 -1.7 0.6 -1.1 -2.3z"/>
  <path d="M183 254.9 c8.3 -7.4 8.9 -7.9 9.8 -7.9 0.5 0 1.9 -1.3 3.2 -3 1.3 -1.6 2.7 -3 3.3 -3 0.5 0 1.8 -1.1 2.9 -2.5 2.8 -3.5 4.6 -3.2 4 0.6 -0.3 1.9 -1.2 3.3 -2.2 3.6 -1 0.3 -2.3 1.6 -3 2.9 -0.8 1.5 -2.2 2.4 -3.7 2.4 -1.3 0 -2.3 0.5 -2.3 1.1 0 1.4 -2.5 3.9 -3.9 3.9 -0.6 0 -1.1 0.5 -1.1 1.1 0 2.1 -4.5 4.8 -8 4.8 l-3.5 0 4.5 -4z"/>
  <path d="M182.2 239.8 c0.2 -2.8 0.8 -3.4 3.1 -3.6 1.5 -0.2 2.7 -0.9 2.7 -1.7 0 -1.6 2.2 -2.5 6.3 -2.5 l3 0 -2.3 2.5 c-1.3 1.4 -2.8 2.5 -3.5 2.5 -0.6 0 -2.6 1.3 -4.5 3 -4.5 3.8 -5.2 3.7 -4.8 -0.2z"/>
  <path d="M262 235.5 c0 -1.4 8.5 -8.5 10.2 -8.5 0.5 0 4.9 -2.7 9.8 -6 4.9 -3.3 9.3 -6 9.8 -6 0.5 0 1.6 -0.7 2.3 -1.6 1.9 -2.3 8.6 -6.4 10.4 -6.4 0.8 0 1.5 -0.5 1.5 -1.1 0 -0.5 1.4 -1.5 3 -2 1.7 -0.6 3 -1.5 3 -2 0 -0.5 1.6 -1.6 3.6 -2.4 2.9 -1.2 8.2 -1.5 25 -1.5 19.4 0 21.3 -0.2 21.8 -1.7 0.3 -1 1.7 -8 3.2 -15.6 l2.7 -13.7 4.6 -3.3 c2.5 -1.8 6.9 -4.6 9.6 -6.2 2.8 -1.6 5.5 -3.4 6 -4.1 2 -2.3 10.5 -7.5 11.4 -7 0.5 0.3 2 -0.5 3.2 -1.9 1.3 -1.3 2.9 -2.5 3.5 -2.5 0.6 0 1.9 -0.9 2.9 -2 1 -1.1 2.4 -2 3.1 -2 0.7 0 2.2 -0.9 3.3 -2.1 1.1 -1.2 2.4 -1.8 3 -1.4 0.6 0.3 1.1 0.2 1.1 -0.3 0 -1.2 10.6 -8.2 12.4 -8.2 0.8 0 2.2 -0.8 3.2 -1.7 1.3 -1.3 3.5 -1.8 8.1 -1.9 6.2 -0.2 6.4 -0.1 9.7 3.8 2.8 3.2 3.4 4.7 3.1 7.6 -0.5 6.7 -3.1 10.7 -9.5 15.2 -1.9 1.3 -4.5 3.4 -5.7 4.7 -2 2 -3.1 2.3 -10.6 2.3 -5.9 0 -8.6 0.4 -9 1.3 -0.2 0.6 -1 4.5 -1.7 8.5 -1 5.5 -1.8 7.6 -3.4 8.4 -1.1 0.6 -3.5 2.5 -5.3 4.2 -4.9 4.7 -7.5 6.9 -14.5 12.2 -3.4 2.6 -6.9 5.6 -7.6 6.5 -0.7 1 -3.3 3.1 -5.7 4.8 -2.5 1.7 -5.1 3.5 -5.8 4 -3.7 3 -12.8 10.6 -16.7 14 -2.5 2.2 -6.7 5.6 -9.5 7.7 -5.3 4 -8.5 7.2 -8.5 8.6 0 0.4 -10.3 0.8 -23 0.8 -19.8 0 -23 -0.2 -23 -1.5 0 -0.8 -0.4 -1.5 -1 -1.5 -0.5 0 -1 -2.1 -1 -4.6 0 -2.7 -0.6 -5.1 -1.5 -6 -1.6 -1.7 -3.9 -0.6 -19.7 8.9 -7.8 4.8 -11.8 5.9 -11.8 3.2z"/>
  <path d="M198 229.4 c0 -1.7 0.7 -2.8 1.9 -3.1 1.1 -0.3 2.2 -1.1 2.5 -1.9 0.7 -1.8 6.6 -1.9 6.6 0 0 1.3 -5.7 5.6 -9.2 6.9 -1.4 0.5 -1.8 0.1 -1.8 -1.9z"/>
  <path d="M265 218.9 c0 -1.2 0.8 -5.1 2.5 -12.6 0.5 -2.3 3 -3.2 3.7 -1.3 0.2 0.6 2.3 -0.8 4.6 -3 4.1 -3.8 4.7 -4 10.4 -4 l6.1 0 -2.9 2.3 c-1.6 1.2 -3.6 2.9 -4.4 3.7 -0.9 0.8 -3.2 2.6 -5.1 4 -1.8 1.4 -5 4 -6.9 5.9 -5 4.8 -8 6.7 -8 5z"/>
  <path d="M466.6 207.7 c0.8 -3.9 1.4 -7.8 1.4 -8.4 0 -0.9 2 -1.3 6.5 -1.3 5.6 0 6.5 0.3 6.5 1.8 0 1.9 -4.6 6.6 -11.6 12 l-4.2 3.2 1.4 -7.3z"/>
  <path d="M179 209.6 c0 -4 4.1 -8.6 7.6 -8.6 1.6 0 2.4 -0.7 2.6 -2.2 0.2 -1.5 1.1 -2.4 2.6 -2.6 1.3 -0.2 2.2 -1 2.2 -2.1 0 -1 1.6 -2.9 3.5 -4.2 1.9 -1.3 3.5 -2.7 3.5 -3.1 0 -0.5 0.5 -0.8 1 -0.8 0.6 0 2.5 -1.5 4.3 -3.3 4.2 -4.3 7.7 -6.7 9.9 -6.7 4.6 0 0.4 5.4 -10.2 13.1 -1.9 1.4 -6.1 5.1 -9.3 8.2 -3.2 3.2 -6.2 5.7 -6.7 5.7 -0.6 0 -1 0.3 -1 0.8 0 0.4 -1.2 1.5 -2.7 2.4 l-2.8 1.7 3.8 -0.6 c3.1 -0.5 3.7 -0.3 3.7 1.2 0 2.7 -3 4.4 -7.7 4.5 -4.2 0 -4.3 -0.1 -4.3 -3.4z"/>
  <path d="M192 206.3 c0 -1 6.2 -6.2 8.3 -6.9 1 -0.3 2.8 -1.5 3.8 -2.5 1 -1 2.8 -1.9 3.9 -1.9 1.1 0 2 -0.4 2 -1 0 -0.5 1.3 -1.6 2.9 -2.4 l2.8 -1.5 -0.6 3.2 c-0.4 1.9 -1.4 3.3 -2.5 3.5 -1 0.2 -2.6 1.2 -3.7 2.3 -1 1 -2.6 1.9 -3.4 1.9 -0.8 0 -1.5 0.4 -1.5 0.9 0 1.5 -6.6 5.1 -9.4 5.1 -1.4 0 -2.6 -0.3 -2.6 -0.7z"/>
  <path d="M159 195.2 c0 -0.4 1 -1.4 2.1 -2.2 1.2 -0.8 2.8 -2.1 3.5 -2.8 1.2 -1.1 1.4 -0.8 1.4 2.2 0 3.4 -0.2 3.6 -3.5 3.6 -1.9 0 -3.5 -0.4 -3.5 -0.8z"/>
  <path d="M160.2 181.8 c0.3 -3 0.6 -3.3 4.1 -3.6 2 -0.2 3.7 0 3.7 0.5 0 0.9 -6.5 6.3 -7.5 6.3 -0.3 0 -0.5 -1.5 -0.3 -3.2z"/>
  <path d="M184 173.5 c1.9 -1.9 3.7 -3.5 4.1 -3.5 0.3 0 2.3 -1.6 4.3 -3.5 5 -4.7 2.9 -4.4 -4.3 0.4 -3.2 2.2 -7.9 5.1 -10.5 6.6 l-4.6 2.6 0 -3.1 c0 -1.6 0.4 -3 0.9 -3 0.5 0 5.2 -2.9 10.5 -6.5 7.8 -5.3 10.3 -6.5 13.6 -6.5 3.9 0 4 0.1 4 3.5 0 3.8 -0.7 4.7 -9.5 12.2 -3.8 3.2 -5.9 4.3 -8.4 4.3 l-3.5 0 3.4 -3.5z"/>
  <path d="M149 156.2 c0 -5.4 3.3 -8.4 8.8 -8.1 3.3 0.2 3.9 0.6 3 1.6 -0.6 0.7 -1.6 1.3 -2.2 1.3 -0.7 0 -2.3 1.1 -3.5 2.4 -1.9 2 -2 2.4 -0.7 2.9 0.9 0.4 1.6 0.3 1.6 -0.2 0 -1.2 10.9 -8.3 11.9 -7.6 0.5 0.3 2 -0.6 3.2 -2 1.3 -1.3 3 -2.5 3.7 -2.5 0.7 0 2 -0.9 2.9 -2 1 -1.1 2.2 -2 2.9 -2 0.6 0 1.9 -0.9 2.9 -2 1 -1.1 2.4 -2 3.2 -2 0.7 0 2.1 -0.9 3 -2 1 -1.1 2.1 -2 2.6 -2 0.5 0 3.2 -1.6 6.1 -3.5 2.9 -1.9 5.7 -3.5 6.2 -3.5 0.5 0 2.6 -1.6 4.8 -3.4 2.1 -1.9 5.7 -4.4 8 -5.6 8.7 -4.5 10.1 -5.3 10.9 -6.7 0.4 -0.7 1.3 -1.3 1.8 -1.3 0.6 0 2.8 -1.4 4.9 -3.1 2.1 -1.7 4.3 -2.8 4.9 -2.4 0.6 0.3 1.1 0.2 1.1 -0.3 0 -1 5.9 -5.1 12.4 -8.6 6.7 -3.6 9 -5 10.1 -6.2 2.3 -2.6 22.6 -15.4 23.5 -14.9 0.6 0.3 1 0.1 1 -0.5 0 -0.6 1.3 -1.6 2.9 -2.1 1.6 -0.6 3.2 -1.7 3.5 -2.5 0.3 -0.8 1.2 -1.4 1.9 -1.4 0.8 0 2.2 -0.9 3.2 -2 1 -1.1 2.3 -2 3 -2 0.7 0 2 -0.9 3 -2 1 -1.1 2.2 -2 2.7 -2 0.5 0 4.1 -2.1 8.1 -4.8 4 -2.6 8.5 -5.4 10.2 -6.2 1.6 -0.8 5.2 -3.2 8 -5.2 2.7 -2.1 5.5 -3.8 6.1 -3.8 0.6 0 1.9 -0.9 2.9 -2 1 -1.1 2.3 -1.9 2.8 -1.7 0.6 0.2 2.1 -0.7 3.5 -2 1.5 -1.4 3.2 -2.1 4.2 -1.8 1.1 0.3 2 -0.1 2.4 -1 0.6 -1.6 5.6 -2.1 5.6 -0.5 0 0.6 0.6 1 1.3 1 0.7 0 3.2 1.4 5.4 3.2 4 3 4.1 3.3 3.7 7.7 -0.3 2.5 -0.7 5.5 -0.9 6.7 -0.4 1.7 -18.1 17.6 -23.3 20.9 -0.9 0.6 -3.6 2.9 -6 5.3 -2.4 2.3 -4.7 4.2 -5.1 4.2 -0.3 0 -3.1 2.3 -6.1 5.1 -3 2.8 -7.1 6.2 -9 7.7 -1.9 1.5 -4.2 3.4 -5 4.2 -0.8 0.8 -3.1 2.7 -5 4.2 -1.9 1.4 -5.1 4.1 -7 6 -2 1.8 -5.1 4.5 -7 6 -1.9 1.4 -5.1 4.1 -7 6 -2 1.9 -4.7 4.2 -6 5.1 -1.4 1 -4.5 3.7 -7 6 -2.5 2.4 -5.4 5 -6.6 5.8 -1.1 0.8 -4.7 3.7 -8 6.5 -3.2 2.9 -8.1 7.1 -10.9 9.4 -2.7 2.4 -5.1 4.7 -5.3 5.1 -0.2 0.5 -1.7 0.9 -3.3 0.9 -2.4 0 -2.9 -0.4 -2.9 -2.3 0 -1.5 2.5 -4.5 8.2 -9.7 4.5 -4.1 11.2 -10.5 14.9 -14.2 3.7 -3.8 7.2 -6.8 7.8 -6.8 1.4 0 1.5 -8.7 0.1 -9.5 -0.5 -0.3 -1 -2.6 -1 -5 0 -2.4 -0.5 -4.7 -1 -5 -0.5 -0.3 -1 -1.9 -1 -3.4 0 -3 -2 -8.1 -3.2 -8.1 -0.5 0 -0.8 0.5 -0.8 1 0 0.6 -0.5 1 -1 1 -0.6 0 -4.1 1.9 -7.8 4.2 -3.7 2.3 -8 4.9 -9.7 5.7 -1.6 0.9 -5.5 3.3 -8.5 5.4 -3 2 -6.5 3.7 -7.7 3.7 -1.3 0 -2.3 0.6 -2.3 1.3 0 0.7 -2.6 2.8 -5.7 4.7 -3.2 1.9 -6.1 3.8 -6.4 4.3 -0.3 0.5 -2.5 1.1 -4.7 1.4 -3.2 0.4 -4.2 1 -4.4 2.7 -0.2 1.6 -1.1 2.2 -3.5 2.4 -2.5 0.2 -3.3 0.8 -3.3 2.3 0 1.1 -0.7 1.9 -1.6 1.9 -0.8 0 -2.2 0.7 -3 1.5 -0.9 0.8 -2.4 1.5 -3.5 1.5 -1 0 -1.9 0.6 -1.9 1.3 0 0.8 -1.2 2 -2.7 2.8 -1.6 0.8 -3.4 2 -4.1 2.7 -0.7 0.6 -2.2 1.2 -3.3 1.2 -1 0 -1.9 0.6 -1.9 1.4 0 1.5 -2.1 2.6 -5.1 2.6 -1 0 -1.9 0.7 -1.9 1.5 0 0.8 -0.7 1.5 -1.5 1.5 -0.8 0 -1.5 0.5 -1.5 1 0 0.6 -0.9 1 -2 1 -1.1 0 -2 0.5 -2 1 0 0.6 -1.3 1 -3 1 -2.3 0 -3 0.4 -3 2 0 1.7 -0.7 2 -4.5 2 l-4.5 0 0 -3.8z"/>
  <path d="M272.6 154.6 c0.7 -1.9 8.2 -6.8 9.3 -6.1 0.5 0.3 2 -0.6 3.2 -2 1.3 -1.3 2.9 -2.5 3.5 -2.5 0.6 0 2.5 -1.3 4.3 -2.9 1.8 -1.7 4.9 -3.7 6.9 -4.7 2 -0.9 5.4 -3 7.6 -4.5 2.1 -1.6 4.3 -2.9 4.8 -2.9 1.3 0 10.1 -6.2 11.1 -7.7 0.4 -0.7 1.7 -1.3 2.7 -1.3 1 0 2.2 -0.5 2.5 -1 1.2 -1.9 15.5 -11.1 16.4 -10.6 0.5 0.3 1.1 -0.1 1.5 -0.9 0.3 -0.8 1 -1.5 1.6 -1.5 0.5 0 3.1 -1.6 5.7 -3.6 2.6 -2 5.7 -4 6.8 -4.4 1.2 -0.5 4.8 -2.7 8.1 -5 3.2 -2.3 7.8 -5 10.2 -6.1 2.3 -1.1 4.2 -2.4 4.2 -2.9 0 -0.4 1.4 -1.6 3 -2.4 1.7 -0.9 4.4 -2.3 6.1 -3.2 1.6 -0.9 4.2 -2.7 5.7 -4.1 1.5 -1.3 3.4 -2.2 4.4 -2 0.9 0.3 2.2 -0.1 2.9 -0.9 1.4 -1.8 3.9 -1.7 6.2 0.1 1.1 0.7 2.4 1.2 3.1 0.9 2 -0.7 6.9 5.2 6.3 7.5 -0.3 1.4 0 2.1 0.9 2.1 1.6 0 1.9 2.6 0.4 3.5 -0.5 0.3 -1 1.4 -1 2.4 0 2.1 -13.4 14.8 -23.5 22.4 -3.9 2.8 -7.9 6.1 -9.1 7.2 -4.3 4.2 -14.8 13 -15.9 13.5 -0.7 0.3 -3.8 2.9 -6.9 5.8 -3.2 2.8 -6 5.2 -6.4 5.2 -0.4 0 -3 2.2 -5.9 4.8 -11.3 10.3 -5.7 9.2 -45.9 9.2 -30.1 0 -35.3 -0.2 -34.8 -1.4z"/>
  <path d="M167 139.3 c0 -4.3 7.7 -11.3 12.4 -11.3 4.5 0 4.6 1.2 0.4 3.8 -1.8 1.2 -4.6 3.5 -6.3 5.2 -1.6 1.8 -3.8 3.6 -4.7 4.1 -1.5 0.8 -1.8 0.5 -1.8 -1.8z"/>
  <path d="M149.1 123.5 c2.3 -2.4 5 -4.7 6.1 -5 1 -0.4 1.6 -1.1 1.2 -1.6 -0.3 -0.6 0.3 -1.3 1.5 -1.6 1.1 -0.3 1.8 -0.9 1.5 -1.4 -0.5 -0.9 -3.5 0.5 -6.9 3.2 -1.1 0.9 -2.8 1.9 -3.8 2.2 -1.5 0.6 -1.8 0.2 -1.5 -2.1 0.2 -1.9 0.9 -2.8 2.6 -3 1.2 -0.2 2.2 -0.9 2.2 -1.7 0 -1.5 5.1 -3.5 9.1 -3.5 2.6 0 2.9 0.3 2.9 3.5 0 3.9 -2.5 7.5 -5.2 7.5 -1 0 -1.8 0.6 -1.8 1.3 0 2.6 -5.5 6.7 -8.9 6.7 l-3.2 0 4.2 -4.5z"/>
  <path d="M184 125 c0 -2.8 1.3 -4.5 9.7 -12.6 5.3 -5.2 10 -9.4 10.4 -9.4 1.2 0 6.9 -5.7 6.9 -6.9 0 -0.6 0.7 -1.1 1.5 -1.1 0.8 0 1.5 -0.7 1.5 -1.5 0 -0.8 0.7 -1.5 1.5 -1.5 0.9 0 1.9 -0.8 2.3 -1.8 0.4 -1 3.6 -4.4 7.2 -7.6 13.9 -12.4 33.1 -32.1 33.7 -34.4 0.3 -1.4 0.1 -3.3 -0.6 -4.3 -0.6 -1 -1.1 -3.6 -1.1 -5.7 0 -2.1 -0.4 -4.2 -0.9 -4.7 -0.5 -0.6 -1.1 -1.8 -1.3 -2.7 -0.3 -1.6 -0.9 -1.4 -5.5 1 -2.9 1.5 -8.5 4.7 -12.5 7.2 -4 2.5 -7.7 4.7 -8.3 4.9 -0.5 0.2 -2.1 1.2 -3.4 2.2 -1.3 1.1 -3.2 1.9 -4.2 1.9 -1.1 0 -1.9 0.4 -1.9 0.9 0 1 -11.3 8.1 -12.9 8.1 -0.6 0 -1.1 0.4 -1.1 1 0 0.5 -1.5 1.6 -3.2 2.5 -3.5 1.6 -6.8 3.5 -13.5 7.8 -3.9 2.5 -9.3 3.7 -9.3 2 0 -1 5.7 -5.8 8.7 -7.3 1.6 -0.8 4.6 -2.6 6.8 -4.1 2.2 -1.4 5 -2.9 6.3 -3.3 1.2 -0.4 2.2 -1.1 2.2 -1.6 0 -0.5 1.2 -1.5 2.8 -2.3 1.5 -0.7 4.4 -2.3 6.5 -3.5 2 -1.2 3.7 -1.9 3.7 -1.6 0 0.3 1.8 -1 4 -2.8 2.1 -1.9 5.2 -4 6.7 -4.8 1.5 -0.8 5.4 -3.2 8.6 -5.3 3.1 -2.1 6.2 -3.5 6.7 -3.2 0.5 0.3 1.7 -0.6 2.6 -2 0.9 -1.4 2.2 -2.5 2.9 -2.5 0.6 0 2 -0.9 3 -2 1 -1.1 2.4 -2 3.1 -2 0.8 0 3.5 -1.6 6 -3.5 2.5 -2 6.5 -4.4 8.8 -5.5 2.4 -1 4.9 -2.6 5.6 -3.5 0.7 -0.8 1.8 -1.5 2.5 -1.5 0.7 0 1.8 -0.7 2.5 -1.5 2.3 -2.8 7.3 -4.5 13 -4.5 5 0 5.9 0.3 8.8 3.3 2.1 2.1 3.3 4.5 3.6 7.1 0.9 7 -2.1 11.2 -15.9 22.6 -3.7 3 -9.5 8.1 -12.9 11.3 -3.3 3.2 -7.7 7 -9.6 8.5 -1.9 1.4 -5.1 4 -7 5.8 -8 7.3 -15.4 14.1 -18.4 16.9 -1.7 1.7 -4.1 3.7 -5.3 4.6 -2.1 1.4 -13.4 11.6 -23.4 20.9 -2.7 2.5 -7.2 6.5 -10 9 -2.9 2.5 -8.1 7.2 -11.6 10.4 l-6.3 5.9 0 -3.3z"/>
  <path d="M154 85.5 c2 -2.4 19.1 -13.7 19.7 -13.1 0.4 0.3 1.2 0.1 2 -0.5 1 -0.9 1.3 -0.6 1.2 1.2 0 2.8 -8.6 8.9 -12.5 8.9 -1.7 0 -2.4 0.6 -2.4 1.9 0 2.2 -1.9 3.1 -6.2 3.1 -2.6 0 -2.9 -0.2 -1.8 -1.5z"/>
  <path d="M135 75.8 c0 -3.1 0.4 -3.8 2 -3.8 1.2 0 2 -0.7 2 -1.6 0 -2 2.4 -4.4 4.4 -4.4 1 0 1.6 -0.9 1.6 -2.3 0 -3.2 6.8 -9.7 10.3 -9.7 1.5 0 2.7 0.3 2.7 0.8 0 0.4 -5.2 6.1 -11.5 12.7 l-11.5 12 0 -3.7z"/>
  <path d="M159 49.5 c0 -1.8 1.3 -3.9 3.8 -6.3 2.1 -2 4.1 -4.5 4.5 -5.4 0.3 -1 1.3 -1.8 2.2 -1.8 0.8 0 1.5 -0.6 1.5 -1.2 0 -0.7 1.8 -3.1 4 -5.3 2.1 -2.2 3.9 -4.5 4 -5.2 0 -0.7 1.1 -2.3 2.5 -3.7 1.7 -1.7 2.5 -3.6 2.5 -6.1 0 -2.8 0.4 -3.5 2 -3.5 1.6 0 2 0.7 2.1 3.3 0.2 6.1 -0.3 8.2 -2.4 10.2 -1.2 1.1 -4.2 4.5 -6.7 7.5 -6.3 7.7 -14 15.8 -17.2 18.2 l-2.8 1.9 0 -2.6z"/>
  <path d="M149 18.6 c1.4 -1.3 3.5 -2.7 4.8 -3.1 1.9 -0.5 2.2 -0.3 2.2 1.8 0 2.8 -1.6 3.7 -6.3 3.7 l-3.2 0 2.5 -2.4z"/>
  <path d="M163 10.2 c0 -0.4 1.4 -1.8 3 -3.2 3.8 -3.2 10 -3.7 10 -0.9 0 1.2 -0.7 1.9 -1.8 1.9 -1 0 -2.7 0.7 -3.8 1.5 -2 1.5 -7.4 2.1 -7.4 0.7z"/>
  <path d="M177 6 c0 -1.3 0.7 -2 1.8 -2 1.1 0 2.7 0.9 3.7 2 1.8 2 1.7 2 -1.8 2 -3 0 -3.7 -0.4 -3.7 -2z"/>
 </g>
 <g fill="#f8c032">
  <path d="M183.3 520.8 c-4.8 -5 -5.7 -8.2 -3.8 -13.9 1.5 -4.5 8.3 -11.9 11 -11.9 0.6 0 3.7 -2.7 7 -6 3.3 -3.3 6.3 -6 6.7 -6 0.6 0 2.1 -1.2 10.1 -8.5 1.8 -1.6 6.2 -5.5 9.7 -8.5 3.6 -3 7.2 -6.2 8 -7 0.8 -0.8 2.2 -1.9 3.1 -2.5 0.9 -0.5 11.2 -9.2 23 -19.3 38 -32.4 49 -41.6 54.8 -45.9 3.1 -2.3 6.1 -4.6 6.6 -5 0.6 -0.5 2.7 -2.1 4.8 -3.7 l3.7 -2.8 0 2.6 c0 1.4 0.5 2.6 1 2.6 0.6 0 1 1.4 1 3 0 1.7 0.5 3 1 3 0.6 0 1 2.3 1 5 0 2.8 0.5 5 1 5 0.6 0 1 2.7 1 6 0 3.3 0.4 6 1 6 0.6 0 1 2 1 4.5 0 2.5 0.6 5.4 1.3 6.6 1.1 1.8 0.8 2.3 -1.9 4.7 -4.7 4.1 -8.6 7.2 -11.6 9 -1.6 0.9 -2.8 2 -2.8 2.4 0 0.4 -0.6 0.8 -1.4 0.8 -0.7 0 -1.9 0.7 -2.6 1.5 -0.7 0.9 -4.1 3.4 -7.6 5.7 -4.3 2.9 -6 4.6 -5.6 5.6 0.4 1.1 0.1 1.3 -0.7 0.7 -1.5 -0.9 -6.3 1.4 -5.5 2.7 0.3 0.4 -0.1 0.8 -1 0.8 -2 0 -11.7 6.5 -10.9 7.3 0.3 0.4 -0.3 0.7 -1.4 0.7 -1.1 0 -2.6 0.7 -3.3 1.5 -0.7 0.8 -1.9 1.5 -2.6 1.5 -0.8 0 -1.4 0.4 -1.4 0.9 0 0.4 -2.5 2.5 -5.5 4.5 -3 2 -5.5 4.1 -5.5 4.7 0 0.5 -0.4 0.7 -1 0.4 -0.9 -0.6 -12.4 6.5 -14.5 8.9 -1.2 1.5 -10.1 7.6 -11 7.6 -0.3 0 -4.6 2.7 -9.5 6 -4.9 3.3 -9.4 6 -9.9 6 -0.6 0 -2.6 1.4 -4.4 3 -1.9 1.7 -3.9 3 -4.4 3 -0.6 0 -1.8 0.9 -2.8 2 -1 1.1 -2.2 2 -2.7 2 -0.5 0 -2.9 1.4 -5.3 3 -2.4 1.7 -5.3 3 -6.4 3 -1.7 0 -2.1 -0.6 -2.1 -3 0 -2.3 0.5 -3 1.9 -3 1 0 2.1 -0.7 2.5 -1.5 0.3 -0.8 1.7 -1.5 3.1 -1.5 1.4 0 2.5 -0.6 2.5 -1.3 0 -0.8 2.3 -2.8 5 -4.6 2.8 -1.8 5.6 -3.8 6.3 -4.5 0.7 -0.7 2.4 -1.9 3.7 -2.6 1.4 -0.7 6.4 -4.2 11.3 -7.8 8.6 -6.4 8.7 -6.6 8.7 -10.8 0 -2.4 -0.4 -4.6 -1 -4.9 -0.5 -0.3 -1 -2.6 -1 -4.9 0 -2.7 -0.6 -4.8 -1.5 -5.6 -1.7 -1.4 -1.6 -1.5 -11.7 7.2 -3.6 3.2 -7 5.8 -7.5 5.8 -0.5 0 -1.5 0.9 -2.3 2 -0.8 1.1 -1.7 2 -2 2 -0.4 0 -2.8 2 -5.3 4.5 -3.5 3.3 -5.5 4.5 -7.7 4.5 -2.4 0 -3 0.4 -3 2.1 0 1.2 -2.2 4.1 -5.5 7.1 -4.6 4.2 -5.5 5.6 -5.5 8.4 0 1.9 0.4 3.4 0.8 3.4 1.6 0 7.2 5.7 7.2 7.3 0 2.9 -4.4 2 -7.7 -1.5z"/>
  <path d="M304.9 520.3 c-0.9 -1 -2.6 -2.5 -3.7 -3.3 -1.2 -0.8 -2.6 -2.8 -3.2 -4.5 -2.3 -6.8 0.7 -10.9 29.2 -40 l16.8 -17 0 3.7 c0 2 0.5 4 1 4.3 0.6 0.3 1 3 1 6 0 3 0.5 5.7 1 6 0.6 0.3 1 1.7 1 3 0 1.3 0.5 2.7 1 3 0.6 0.3 1 2.6 1 5 0 2.4 0.4 4.6 1 5 1.3 0.8 0.1 3.5 -1.6 3.5 -0.8 0 -1.4 0.5 -1.4 1 0 0.6 -0.7 1 -1.5 1 -0.8 0 -1.5 0.4 -1.5 0.8 0 0.4 -3 2.8 -6.7 5.2 -3.8 2.4 -7.1 4.8 -7.4 5.2 -0.7 1.1 -16.1 10.8 -17.1 10.8 -0.4 0 -0.8 0.7 -0.8 1.5 0 2.2 -6.1 2 -8.1 -0.2z"/>
  <path d="M118.8 493.6 c-3.6 -3 -3.5 -3.6 0.3 -3.6 4.6 0 7.9 4 4.3 5.4 -0.9 0.3 -1.6 0.6 -1.7 0.6 -0.1 0 -1.4 -1.1 -2.9 -2.4z"/>
  <path d="M126.4 494.5 c-1 -2.6 0.4 -4.5 3.5 -4.5 2 0 3 -0.6 3.4 -1.9 0.2 -1 1.8 -2.4 3.6 -3.2 1.7 -0.8 3.1 -1.7 3.1 -2.1 0 -0.5 1.4 -0.8 3 -0.8 2 0 3 -0.5 3 -1.5 0 -1.8 7.2 -6.5 10 -6.5 1.3 0 2 -0.7 2 -2 0 -1.1 0.7 -2 1.5 -2 0.8 0 1.5 -0.4 1.5 -1 0 -0.5 0.7 -1 1.5 -1 0.8 0 1.5 -0.4 1.5 -1 0 -0.5 0.9 -1 1.9 -1 1 0 2.1 -0.7 2.5 -1.5 0.3 -0.8 1.3 -1.5 2.3 -1.5 1 0 2.4 -0.9 3.1 -2 0.7 -1.1 1.9 -2 2.7 -2 0.8 0 1.5 -0.4 1.5 -0.8 0 -0.5 1.7 -1.7 3.8 -2.8 2 -1 3.9 -2.2 4.2 -2.5 0.7 -0.8 14.7 -10.2 17.2 -11.6 1.1 -0.6 2.3 -1.5 2.7 -2 0.7 -1 9.9 -7.3 10.7 -7.3 0.3 0 2.3 -1.4 4.5 -3.2 3.8 -3.1 5.2 -6.9 2.9 -8.3 -0.6 -0.3 -1 -2.6 -1 -5 0 -2.4 -0.4 -4.7 -1 -5 -0.5 -0.3 -1 -2.5 -1 -4.9 0 -2.3 -0.4 -4.6 -0.9 -5.1 -0.5 -0.6 -1.1 -2.1 -1.3 -3.4 -0.4 -2.8 3.7 -5.8 -43.7 32.9 -2.4 1.9 -5 3.9 -5.7 4.3 -0.8 0.4 -2.5 1.8 -3.8 3 -1.4 1.2 -3.8 3.4 -5.5 5 -1.6 1.5 -3.3 2.7 -3.6 2.7 -0.4 0 -1.6 1.1 -2.7 2.5 -1.1 1.4 -2.5 2.5 -3.3 2.5 -0.7 0 -1.5 0.7 -1.9 1.5 -0.3 0.8 -1.2 1.5 -2.1 1.5 -0.8 0 -1.5 0.5 -1.5 1 0 0.6 -1.4 1 -3 1 -2.8 0 -2.9 -0.2 -1.8 -2 0.7 -1.1 1.6 -2 2 -2 0.4 0 2.2 -1.5 4.1 -3.2 3.9 -3.8 7.5 -6.8 8.2 -6.8 0.2 0 1.9 -1.5 3.8 -3.2 1.8 -1.8 4.5 -4.2 5.8 -5.2 4.6 -3.7 14.4 -12.1 18.4 -15.8 2.2 -2.1 4.5 -3.8 5 -3.8 0.6 0 3 -2.1 5.5 -4.6 2.5 -2.5 5.9 -5.4 7.7 -6.5 1.8 -1.1 4.7 -3.4 6.5 -5.2 1.8 -1.8 7.5 -6.6 12.7 -10.7 5.1 -4.1 9.8 -8 10.5 -8.6 2.6 -2.4 14.7 -12.4 22.6 -18.6 4.7 -3.7 12.5 -10.1 17.3 -14.2 4.9 -4.1 10 -8.3 11.4 -9.3 2.7 -2 5.4 -4.2 9.5 -7.8 2.9 -2.6 15.8 -12.1 20 -14.8 4.1 -2.6 4.8 -2.1 4.8 3.3 0 2.8 0.5 5 1 5 0.6 0 1 2.4 1 5.4 0 5.3 -0.2 5.6 -5.7 11.3 -6.7 6.7 -21.2 19.9 -26.5 24 -3.7 2.9 -6.3 6.1 -5.5 6.9 0.6 0.7 5.5 -1.6 11.2 -5.2 6.6 -4 15.4 -9 23.5 -13.1 l6.5 -3.3 0.3 3 c0.2 1.6 0.7 3 1.3 3 0.5 0 0.9 2.3 0.9 5 0 2.8 0.5 5 1 5 0.6 0 1 0.9 1 1.9 0 1.8 -11.6 12.1 -13.6 12.1 -0.4 0 -1.7 0.8 -2.8 1.9 -2.3 2 -17.2 12.1 -33.3 22.5 -6 3.8 -10.3 7.2 -10.3 8.1 0 0.9 -0.4 1.3 -1 1 -1.1 -0.7 -10 5.1 -10 6.5 0 0.5 -0.7 0.7 -1.5 0.4 -0.8 -0.4 -1.7 0.1 -2.1 0.9 -0.3 0.9 -2 2.1 -3.8 2.7 -1.7 0.5 -4.6 2.3 -6.3 3.9 -1.8 1.6 -3.4 2.7 -3.7 2.4 -0.6 -0.6 -6.1 3.1 -9.4 6.3 -1.3 1.2 -3.7 2.9 -5.5 3.7 -1.8 0.9 -4.9 2.7 -7 4.1 -2.1 1.4 -4.1 2.6 -4.4 2.6 -0.3 0 -3.9 2.3 -7.9 5 -4 2.8 -7.7 5 -8.1 5 -0.4 0.1 -2.4 1.4 -4.3 3 -1.9 1.7 -3.8 3 -4.3 3 -0.4 0 -4.1 2.3 -8.2 5 -4.1 2.8 -7.7 5 -8 5 -0.4 0 -2.6 1.4 -5 3 -2.4 1.7 -4.6 3 -5 3 -0.3 0 -3.9 2.3 -8 5 -4.1 2.8 -7.8 5 -8.2 5 -0.5 0 -2.4 1.3 -4.3 3 -1.9 1.6 -3.9 2.9 -4.5 3 -0.5 0 -2.1 0.9 -3.5 2 -3 2.4 -4.9 2.5 -5.6 0.5z"/>
  <path d="M112.7 486.2 c-2.2 -2.5 -2.1 -4.5 0.3 -6.7 2 -1.8 2 -1.7 2 3.3 0 2.9 -0.2 5.2 -0.3 5.2 -0.2 0 -1.1 -0.8 -2 -1.8z"/>
  <path d="M124.4 465.9 c0.8 -1.2 3 -3.2 5 -4.5 l3.6 -2.5 0 2.9 c0 3.4 -3.4 6.2 -7.5 6.2 -2.5 0 -2.5 -0.1 -1.1 -2.1z"/>
  <path d="M88 444 c0 -2.3 0.5 -3.3 2 -3.7 1.1 -0.3 2 -0.9 2 -1.4 0 -0.5 1.8 -0.9 4 -0.9 4.8 0 5 0.8 0.7 3.6 -1.7 1.1 -4.4 2.9 -5.9 3.8 l-2.8 1.8 0 -3.2z"/>
  <path d="M66.9 442.4 c-2.2 -2.7 -2.2 -5.4 0.1 -5.4 1.6 0 2 0.7 2 3.5 0 4 -0.2 4.2 -2.1 1.9z"/>
  <path d="M101.2 435.4 c0.2 -1.6 1.4 -3.2 3.3 -4.2 1.7 -0.9 3.2 -2 3.3 -2.4 0.2 -0.5 2.2 -0.8 4.4 -0.8 4.2 0 4.8 1.5 1.3 3.4 -1.1 0.6 -3.9 2.3 -6.2 3.9 -5.2 3.4 -6.5 3.4 -6.1 0.1z"/>
  <path d="M117 425.7 c0 -3.4 0.2 -3.7 3 -3.7 2 0 3 -0.5 3 -1.5 0 -0.9 0.8 -1.9 1.7 -2.2 0.9 -0.4 2.5 -1.5 3.5 -2.5 1 -1 3.2 -1.8 4.8 -1.8 1.8 0 3 -0.5 3 -1.3 0 -1.5 6.9 -6.7 11.8 -8.8 1.7 -0.8 3.2 -1.9 3.2 -2.6 0 -0.6 1.3 -1.4 2.9 -1.8 1.6 -0.3 4.6 -2.3 6.8 -4.3 2.1 -2 5.7 -4.6 7.8 -5.7 2.2 -1.1 4.2 -2.2 4.5 -2.5 1 -1.2 16.6 -11.6 19.2 -12.9 1.5 -0.8 3.7 -2.2 4.7 -3.3 1.6 -1.4 3.6 -1.8 9.1 -1.8 4.5 0 6.9 0.4 6.5 1 -0.3 0.6 -1.5 1 -2.6 1 -1 0 -1.9 0.5 -1.9 1 0 0.6 -0.6 1 -1.2 1 -0.7 0 -2.3 1.1 -3.6 2.4 -1.2 1.4 -3.6 2.7 -5.2 3.1 -1.7 0.4 -3 1.1 -3 1.6 0 0.5 -0.6 0.9 -1.4 0.9 -0.7 0 -2.5 1.1 -4 2.5 -1.5 1.4 -2.9 2.5 -3.2 2.5 -0.3 0 -2.4 1.3 -4.7 2.9 -4.3 2.9 -9.2 5.8 -15.8 9.3 -2 1 -4.5 2.8 -5.4 3.8 -1 1.1 -2.2 2 -2.8 2 -0.5 0 -2.9 1.4 -5.4 3 -2.4 1.7 -4.8 3 -5.2 3 -0.4 0 -1.6 0.9 -2.6 2 -1 1.1 -2.2 2 -2.7 2 -0.5 0 -2.9 1.4 -5.3 3 -2.4 1.7 -4.6 3 -5 3 -0.4 0 -2.6 1.4 -5 3 -2.4 1.7 -4.7 3 -5.1 3 -0.4 0 -1.6 0.7 -2.6 1.7 -1.7 1.5 -1.8 1.4 -1.8 -2z"/>
  <path d="M97 405.5 c0 -1 3.4 -4.2 5.3 -4.8 1.5 -0.6 1.8 -0.2 1.5 2.1 -0.2 2.2 -0.8 2.8 -3.5 3 -1.8 0.2 -3.3 0.1 -3.3 -0.3z"/>
  <path d="M105 399.5 c0 -1 7.3 -8.5 8.3 -8.5 0.5 0 3.2 -2.1 5.8 -4.7 6.2 -6 8.9 -7.2 8.9 -3.9 0 3 -6.2 8.6 -9.5 8.6 -1.7 0 -2.5 0.6 -2.5 1.8 0 2.7 -5.2 7.2 -8.3 7.2 -1.5 0 -2.7 -0.2 -2.7 -0.5z"/>
  <path d="M67.2 385.3 c0.3 -2.5 0.7 -2.8 4.6 -3.1 2.3 -0.2 4.2 0.1 4.2 0.5 0 1 -3.1 3 -6.6 4.4 -2.4 0.8 -2.5 0.7 -2.2 -1.8z"/>
  <path d="M129 379.3 c0 -1.4 16.6 -16 22.1 -19.6 1.5 -1 4.5 -3.5 6.6 -5.5 2.1 -2 5.6 -5 7.7 -6.7 2.2 -1.6 4.4 -3.4 5 -4 3.8 -3.5 15.7 -12.5 16.5 -12.5 1.9 0 1.2 4 -1.1 6.3 -5 4.8 -26.7 22.7 -27.7 22.7 -0.6 0 -1.1 0.4 -1.1 0.9 0 0.5 -2.7 2.9 -6 5.3 -3.3 2.3 -8.4 6.4 -11.2 9 -3.6 3.2 -6.2 4.8 -8 4.8 -1.6 0 -2.8 -0.3 -2.8 -0.7z"/>
  <path d="M89 371.8 c0 -1 0.6 -1.8 1.4 -1.8 0.7 0 1.6 -0.9 1.9 -2 0.3 -1.3 1.4 -2 3 -2 1.6 0 2.6 -0.7 3 -2 0.4 -1.5 1.4 -2 4.1 -2 2.5 0 3.6 0.4 3.6 1.5 0 0.8 -0.7 1.5 -1.5 1.5 -0.7 0 -1.8 0.6 -2.2 1.3 -1.2 2 -9.2 7.1 -11.4 7.2 -1.2 0.1 -1.9 -0.5 -1.9 -1.7z"/>
  <path d="M48.4 367.1 c1 -1 2.6 -2.1 3.7 -2.4 1.5 -0.4 1.9 0 1.9 1.9 0 2.1 -0.5 2.4 -3.7 2.4 -3.5 0 -3.6 -0.1 -1.9 -1.9z"/>
  <path d="M108 360.1 c0 -2.4 1 -3.6 6 -7 3.3 -2.3 6.7 -4.1 7.5 -4.1 0.8 0 1.5 -0.7 1.5 -1.5 0 -0.8 0.7 -1.5 1.5 -1.5 0.8 0 1.5 -0.4 1.5 -1 0 -0.5 0.7 -1 1.5 -1 0.8 0 1.5 -0.4 1.5 -0.9 0 -0.5 1.4 -1.3 3.2 -1.6 1.8 -0.4 4.3 -2 5.7 -3.6 1.4 -1.6 2.9 -2.9 3.3 -2.9 0.4 0 1.8 -0.9 3 -1.9 1.3 -1.1 8.4 -5.9 15.8 -10.8 7.4 -4.9 16.5 -11 20.1 -13.6 6.6 -4.7 12.9 -6.4 12.9 -3.4 0 2.9 -1.3 5.7 -2.7 5.7 -1.7 0 -12.3 6.8 -12.3 8 0 0.4 -3.4 2.4 -7.5 4.5 -4.2 2.1 -9.2 5.4 -11.3 7.2 -2 1.8 -4.1 3.3 -4.7 3.3 -0.5 0 -3.6 1.8 -6.8 4 -3.1 2.2 -6 4 -6.2 4 -0.3 0 -3.9 2.2 -8 5 -4.1 2.7 -9 5.6 -10.9 6.5 -1.9 0.9 -4.2 2.5 -5.2 3.6 -0.9 1 -2.3 1.9 -3 1.9 -0.7 0 -1.7 0.6 -2.1 1.3 -0.4 0.8 -1.6 1.6 -2.5 2 -1.5 0.5 -1.8 0.1 -1.8 -2.2z"/>
  <path d="M57 361.1 c0 -0.5 1.9 -2.6 4.3 -4.6 l4.2 -3.6 0.3 2.6 c0.2 1.5 -0.4 3.5 -1.4 4.6 -1.7 1.9 -7.4 2.7 -7.4 1z"/>
  <path d="M68.1 351.2 c0.6 -1 2.6 -2.8 4.5 -4 l3.4 -2.2 0 3 c0 3.3 -2.2 5 -6.4 5 -2.3 0 -2.5 -0.2 -1.5 -1.8z"/>
  <path d="M239.3 350.5 c0.3 -1.1 1.8 -8.5 3.2 -16.5 1.7 -8.9 3.4 -15.2 4.4 -16.2 1.8 -1.9 40.4 -25.2 52.4 -31.6 4.2 -2.3 8.4 -3.9 9.2 -3.6 1 0.4 1.5 1.9 1.5 4.4 0 2.1 0.4 4 0.9 4.2 0.5 0.2 1.1 2.7 1.2 5.7 l0.3 5.4 -6 4.4 c-3.2 2.4 -6.7 5.1 -7.8 6 -1 0.8 -4.1 2.8 -6.8 4.4 -2.7 1.6 -5.4 3.4 -6.1 4 -0.7 0.5 -5.5 3.8 -10.9 7.3 -12.1 7.8 -14.8 9.8 -14.8 11.1 0 0.5 -1.1 1.1 -2.4 1.1 -1.3 0.1 -3.3 1.1 -4.5 2.3 -1.2 1.2 -3.2 2.6 -4.4 3.2 -3.2 1.4 -6.2 3.3 -8.2 4.9 -1.6 1.3 -1.7 1.3 -1.2 -0.5z"/>
  <path d="M83.5 338.4 c3.8 -3.4 4 -3.4 4.3 -1.4 0.6 3.8 -0.5 5 -4.5 5 l-3.8 -0.1 4 -3.5z"/>
  <path d="M89 334.3 c0 -0.5 1.5 -2 3.3 -3.5 4.1 -3.5 22 -18.4 36.7 -30.7 6.3 -5.2 11.7 -9.8 12 -10.1 0.3 -0.3 4.8 -4.1 10 -8.3 5.2 -4.3 11.9 -9.9 14.8 -12.5 3 -2.6 6.2 -5.1 7.3 -5.6 1 -0.5 1.9 -1.2 1.9 -1.6 0 -0.4 2.6 -2.7 5.8 -5.1 3.1 -2.4 6.3 -4.9 7 -5.6 0.8 -0.7 2.9 -2.5 4.8 -4 1.9 -1.4 5.1 -4.1 7.2 -6 5 -4.7 7.1 -5.8 6.6 -3.5 -0.2 0.9 -1.5 7.8 -2.9 15.2 -1.5 7.4 -2.9 14.5 -3.2 15.8 -0.6 2.4 -3.3 3.1 -3.3 0.7 0 -0.8 -0.9 -1.5 -2 -1.5 -1.8 0 -2 -0.7 -2 -6 0 -3.3 -0.4 -6 -0.9 -6 -1.1 0 -3.8 2.1 -28.1 22 -10.5 8.5 -22.9 18.7 -27.7 22.5 -4.8 3.9 -12.1 9.9 -16.3 13.5 -13 11 -14.4 12 -17.2 12 -2.3 0 -2.8 0.4 -2.8 2.5 0 1.7 -0.8 2.9 -2.5 3.7 -1.4 0.6 -2.5 1.5 -2.5 2 0 0.4 -1.3 0.8 -3 0.8 -1.6 0 -3 -0.3 -3 -0.7z"/>
  <path d="M62 315.9 c0 -1.9 0.6 -3.2 1.8 -3.6 0.9 -0.4 2.6 -1.5 3.6 -2.5 1.1 -1 2.5 -1.8 3.2 -1.8 0.6 0 1.7 -0.7 2.4 -1.5 0.7 -0.8 2 -1.5 2.9 -1.5 0.9 0 2.2 -0.9 2.9 -2 0.7 -1.1 2.1 -2 3.1 -2 1 0 2.1 -0.7 2.5 -1.5 0.3 -0.8 1.6 -1.5 3 -1.5 1.5 0 2.5 -0.7 2.9 -2.1 0.3 -1.1 1.9 -2.5 3.6 -3.2 1.7 -0.6 3.1 -1.5 3.1 -1.9 0 -0.4 0.7 -0.8 1.5 -0.8 0.8 0 1.5 -0.4 1.5 -1 0 -0.5 0.4 -1 0.9 -1 0.5 0 4.5 -2.5 8.9 -5.5 4.4 -3 8.7 -5.5 9.6 -5.5 0.9 0 3.3 -1.8 5.5 -4 2.1 -2.2 4.6 -4 5.4 -4 0.9 0 2.4 -0.9 3.4 -1.9 1 -1 7.2 -5.5 13.8 -9.9 35.6 -24 41.2 -28.1 38.8 -28.9 -0.8 -0.3 -1.3 -2.3 -1.3 -5.4 0 -2.7 -0.5 -4.9 -1 -4.9 -0.6 0 -2.8 0.9 -5 2 -2.2 1.1 -5.9 2 -8.5 2 l-4.5 0 0 -3.9 c0 -3.4 0.8 -4.6 7.8 -11.6 4.6 -4.6 7.2 -7.9 6.5 -8.2 -0.8 -0.3 -1.3 -2.4 -1.3 -5.4 0 -5.5 -1.5 -6.3 -5.3 -2.9 -3.4 3.1 -14.8 12.4 -16.5 13.5 -0.8 0.6 -3.1 2.4 -5.1 4.1 -3.3 2.9 -20.7 17.4 -35.7 29.8 -3.4 2.8 -7.4 6.1 -9 7.3 -1.6 1.2 -5 4.1 -7.5 6.5 -7 6.6 -11.5 9.8 -13.8 9.8 -1.4 0 -2.1 0.6 -2.1 1.8 0 2.6 -2 4.2 -5.2 4.2 -3.5 0 -3.5 -0.6 0 -3.9 5.7 -5.2 15.5 -13.6 17.6 -15.1 1.1 -0.8 3.2 -2.7 4.4 -4.2 1.3 -1.6 2.8 -2.8 3.4 -2.8 0.5 0 2.3 -1.2 3.9 -2.7 5.4 -5 11.9 -10.6 20.3 -17.3 1 -0.8 3.3 -2.8 5 -4.3 1.7 -1.6 5.1 -4.5 7.6 -6.5 6.6 -5.4 18.7 -15.6 31.5 -26.8 3.9 -3.3 9.7 -8.1 13 -10.6 8.7 -6.7 14.2 -12 12.8 -12.5 -0.6 -0.2 -5.5 2.5 -10.8 6.1 -5.3 3.6 -10.1 6.6 -10.5 6.6 -0.5 0 -1 0.4 -1.2 0.8 -0.4 1.2 -9.5 7.2 -10.7 7.2 -0.6 0 -1.5 0.9 -2.1 2 -0.6 1.1 -1.7 2 -2.6 2 -0.8 0 -4.8 2.3 -8.9 5 -4.1 2.8 -7.8 5 -8.3 5 -0.5 0 -1.7 0.9 -2.7 2 -1 1.1 -2.3 2 -2.9 2 -0.7 0 -2.7 1.3 -4.6 3 -1.9 1.6 -4 2.9 -4.6 3 -0.6 0 -1.7 0.7 -2.4 1.5 -0.7 0.9 -2.9 2.3 -4.9 3.2 -2 1 -4.5 2.5 -5.5 3.5 -1.1 1 -2.4 1.8 -2.9 1.8 -0.5 0 -4.8 2.7 -9.6 6 -4.8 3.3 -9.1 6 -9.5 6 -1 0 -14.6 9.2 -14.6 9.9 0 0.4 -1.7 1.5 -3.7 2.5 -2.1 1 -5 2.5 -6.5 3.3 -2.8 1.4 -2.8 1.4 -2.8 -1.6 0 -2.8 0.3 -3.1 3 -3.1 1.9 0 3 -0.5 3 -1.4 0 -1.2 20 -15.6 21.6 -15.6 0.7 0 10.7 -6.7 12.7 -8.4 0.9 -0.9 2.1 -1.6 2.7 -1.6 0.6 0 1 -0.4 1 -1 0 -0.5 0.7 -1 1.5 -1 0.8 0 1.5 -0.4 1.5 -1 0 -0.5 0.7 -1 1.5 -1 0.8 0 1.5 -0.4 1.5 -0.8 0 -0.5 1.2 -1.5 2.8 -2.3 1.5 -0.8 2.9 -1.7 3.2 -2 0.3 -0.4 8.6 -6 18.5 -12.5 9.9 -6.5 18.2 -12.1 18.5 -12.4 0.3 -0.4 3.7 -2.9 7.5 -5.6 l7 -4.9 -0.3 -4.9 c-0.6 -8.6 -1.6 -8.7 -14.7 -1.1 -9.5 5.5 -12.1 6.6 -15.2 6.3 -3.6 -0.3 -3.8 -0.5 -4.1 -4 -0.3 -3.5 0.2 -4.2 13.7 -17.4 12.5 -12.2 16.4 -17.4 13.1 -17.4 -0.5 0 -1 -2.1 -1 -4.6 l0 -4.6 -2.9 1.9 c-3.4 2.2 -8 6.1 -31.1 26.6 -9.8 8.6 -18.3 15.7 -18.8 15.7 -0.5 0 -1.2 0.7 -1.6 1.5 -0.3 0.9 -1.8 1.5 -3.6 1.5 -2.6 0 -3 0.4 -3 2.8 0 2 -0.8 3.2 -2.9 4.5 -1.6 0.9 -4.5 3.3 -6.4 5.2 -2.6 2.6 -4.4 3.5 -6.8 3.5 l-3.3 0 5.5 -5.3 c2.9 -2.9 7.4 -6.8 9.9 -8.8 2.5 -2 6.8 -6 9.5 -8.8 2.8 -2.9 6.1 -5.9 7.5 -6.6 1.4 -0.7 5.2 -4.1 8.5 -7.5 3.3 -3.4 7.7 -7.5 9.8 -9 2.1 -1.6 7.3 -6 11.5 -9.8 4.2 -3.8 9.2 -8.2 11 -9.7 3.5 -2.9 4.2 -4.8 1.5 -3.8 -1 0.3 -7.1 4.1 -13.5 8.4 -6.4 4.4 -11.9 7.9 -12.3 7.9 -0.3 0 -3.8 2.1 -7.8 4.8 -4 2.6 -8.4 5.3 -9.8 6.1 -1.4 0.7 -4.9 3 -7.8 5.2 -2.8 2.1 -5.6 3.9 -6.2 3.9 -0.6 0 -3 1.4 -5.4 3 -2.4 1.7 -4.8 3 -5.3 3 -0.5 0 -1.7 0.9 -2.7 2 -1 1.1 -2.2 2 -2.7 2 -0.5 0 -3.6 1.8 -6.8 4 -3.2 2.2 -6.4 4 -6.9 4 -0.6 0 -1.1 0.4 -1.1 0.8 0 0.5 -1.2 1.5 -2.7 2.3 -1.6 0.7 -4.7 2.6 -7 4.1 -2.3 1.5 -4.6 2.8 -5.1 2.8 -0.5 0 -1.7 0.9 -2.7 2 -1 1.1 -2.2 2 -2.7 2 -0.5 0 -3.6 1.8 -6.9 4 l-5.9 4.1 0 -2.9 c0 -1.6 0.6 -3.4 1.3 -3.9 2.9 -2.4 10.9 -6.3 12.7 -6.3 1.1 0 2 -0.7 2 -1.5 0 -1.4 12.9 -10.5 14.9 -10.5 0.6 0 1.1 -0.4 1.1 -1 0 -0.5 0.5 -1 1.1 -1 1.1 0 8.7 -5 11.1 -7.2 0.7 -0.7 3.8 -2.6 6.8 -4.2 3 -1.6 5.7 -3.3 6 -3.6 0.3 -0.4 2 -1.5 3.8 -2.4 1.7 -0.9 3.2 -2.1 3.2 -2.6 0 -0.6 0.7 -1 1.5 -1 0.8 0 1.5 -0.4 1.5 -1 0 -0.5 0.7 -1 1.5 -1 0.8 0 1.5 -0.4 1.5 -0.8 0 -0.5 1.7 -1.8 3.8 -3 4.1 -2.3 20 -12.8 36.6 -24.2 11 -7.6 14 -11 11.8 -13.2 -0.7 -0.7 -1.2 -2.9 -1.2 -5 0 -4.4 -0.3 -4.4 -9.8 1.4 -3.4 2.1 -6.4 3.8 -6.6 3.8 -0.3 0 -3.9 2.2 -8 5 -4.2 2.7 -7.8 5 -8.1 5 -0.4 0 -2.6 1.4 -5 3 -2.4 1.7 -5.5 3 -6.9 3 -1.6 0 -2.6 0.6 -2.6 1.4 0 2.4 -6.7 5.6 -11.6 5.6 -4.2 0 -4.4 -0.2 -4.4 -2.8 0 -4 2.2 -8.2 4.3 -8.2 0.9 0 1.7 -0.7 1.7 -1.5 0 -1.7 1.5 -3.6 10.2 -12.8 3.2 -3.3 5.8 -6.3 5.8 -6.6 0 -0.4 0.9 -1.3 2 -2.1 1.1 -0.8 2 -2 2 -2.6 0 -0.7 0.3 -1.4 0.8 -1.6 0.4 -0.2 3.4 -3.4 6.7 -7.3 3.3 -3.8 7.2 -8.3 8.8 -9.9 1.5 -1.6 2.7 -3.2 2.7 -3.6 0 -0.5 2.2 -3.2 5 -6.1 3.1 -3.4 4.6 -5.7 4 -6.3 -0.6 -0.6 -1 -3.4 -1 -6.2 0 -2.9 -0.5 -5.6 -1 -5.9 -0.6 -0.3 -1 -2.6 -1 -5.1 0 -2.4 -0.4 -4.4 -1 -4.4 -0.5 0 -4.3 2 -8.3 4.5 -4.1 2.5 -8.2 4.5 -9.1 4.5 -0.9 0 -1.6 0.4 -1.6 0.9 0 1.2 -39.6 27.1 -41.5 27.1 -0.8 0 -1.5 0.7 -1.5 1.5 0 1 -1.1 1.5 -3.5 1.5 -3.2 0 -3.5 0.2 -3.5 3.1 0 1.7 -0.5 3.9 -1 5 -0.9 1.6 -0.6 2.4 1.5 4.3 1.4 1.3 2.5 2.9 2.5 3.5 0 1 1.9 1.1 7.5 0.6 l7.5 -0.7 0 4.4 c0 4.2 -0.5 4.9 -11.6 17.1 -7 7.6 -12.4 12.7 -13.5 12.7 -1.1 0 -1.9 0.7 -1.9 1.5 0 3.2 -3.1 6.5 -6.2 6.5 l-2.9 0 2.2 -3.2 c1.2 -1.8 2.7 -3.7 3.3 -4.3 0.6 -0.5 5.4 -5.7 10.6 -11.5 5.2 -5.7 11 -12 12.8 -14 2.7 -2.8 3 -3.6 1.6 -3.8 -0.9 -0.2 -2.1 0.1 -2.7 0.7 -1.4 1.4 -4.7 1.4 -4.7 0.1 0 -0.5 -0.5 -1 -1.2 -1 -2 0 -8 -5.2 -7.4 -6.5 0.2 -0.7 0.1 -1.6 -0.4 -2.1 -0.5 -0.5 -1 -2.1 -1.2 -3.7 -0.3 -2.9 5.1 -10.4 10.3 -14.2 8.6 -6.2 33 -22.5 33.7 -22.5 0.5 0 1.7 -0.9 2.6 -1.9 1 -1.1 3.1 -2.3 4.7 -2.6 1.6 -0.4 2.9 -1 2.9 -1.4 0 -0.9 14.9 -11 21.9 -14.8 2.5 -1.4 8.4 -5.2 13.1 -8.4 12.3 -8.3 18.2 -8.8 25 -2 1.8 1.7 2.5 13.1 0.8 13.1 -1.3 0 -4.8 3.9 -4.8 5.4 -0.1 0.6 -1.9 2.9 -4 5.1 -2.2 2.2 -4 4.6 -4 5.3 0 0.6 -0.7 1.2 -1.5 1.2 -0.9 0 -1.9 0.8 -2.2 1.8 -0.4 0.9 -3.3 4.2 -6.5 7.1 -3.2 3 -5.8 6.3 -5.8 7.3 0 1 -0.6 1.8 -1.4 1.8 -0.8 0 -3.4 2.3 -5.8 5 -2.4 2.8 -7.1 8.1 -10.5 11.8 -3.5 3.7 -6.3 7 -6.3 7.4 0 0.4 -4.8 5.7 -10.7 11.8 -5.9 6.1 -11.5 12.2 -12.4 13.7 -1 1.4 -3.2 3.9 -5 5.4 l-3.3 2.8 4.2 -1.1 c2.3 -0.6 5.2 -2 6.4 -3.2 3.9 -3.7 8.7 -6.8 9.8 -6.1 0.5 0.3 1 0.2 1 -0.3 0 -1.1 9.7 -7.6 12.8 -8.6 1.2 -0.4 3.4 -1.8 4.8 -3.1 1.4 -1.3 3.9 -2.7 5.5 -3 1.6 -0.4 2.9 -1 2.9 -1.5 0 -0.4 1.8 -1.7 4.1 -2.9 2.2 -1.2 5 -3 6.1 -4.1 1.2 -1.1 2.5 -2 3 -2 0.4 0 2.7 -1.4 5 -3 2.2 -1.7 4.5 -3 5 -3 0.5 0 4.4 -2.4 8.6 -5.3 4.2 -2.9 8.4 -5.6 9.2 -6 1.9 -0.9 7.6 -4.3 21.4 -12.7 5.9 -3.6 11.4 -6.9 12.4 -7.5 0.9 -0.5 5.5 -3.3 10.2 -6.1 7.4 -4.5 21.9 -12.4 22.7 -12.4 0.2 0 0.3 1.5 0.3 3.4 0 1.9 0.4 3.8 1 4.1 0.6 0.3 1 2.6 1 5 0 2.4 0.5 4.7 1 5 0.6 0.3 1 3.1 1 6 0 4.7 -0.4 5.9 -3.2 9.1 -3.9 4.5 -21.7 21.8 -30.8 30 -3.6 3.2 -6.5 6.3 -6.5 6.9 0 0.5 -1 1.4 -2.2 2.1 -1.3 0.6 -2 1.4 -1.6 1.8 0.4 0.4 -0.3 0.9 -1.5 1.3 -1.2 0.3 -2.2 1 -2.2 1.5 0 1.2 -5.8 6.8 -7 6.8 -0.5 0 -6.4 5.6 -13.2 12.4 -6.8 6.7 -13.2 12.6 -14.4 13 -1.1 0.3 -6.1 4.9 -10.9 10.1 -4.9 5.2 -9.6 9.5 -10.5 9.5 -1.6 0 -6 3.9 -6 5.3 0 1.3 3.8 0.7 4.3 -0.6 0.2 -0.7 2.3 -2.2 4.6 -3.2 2.2 -1.1 4.1 -2.3 4.1 -2.7 0 -0.5 0.7 -0.8 1.5 -0.8 0.9 0 7.6 -4 15 -9 7.4 -4.9 13.9 -9 14.5 -9 0.5 0 1 -0.4 1 -0.8 0 -0.5 1.2 -1.5 2.8 -2.3 1.5 -0.7 4.6 -2.6 6.9 -4.1 2.3 -1.5 4.4 -2.8 4.8 -2.8 0.3 0 1.1 -0.5 1.8 -1 1.1 -1 4.4 -3.1 22.2 -14 3.3 -2 8.9 -5.5 12.5 -7.7 3.6 -2.2 8.1 -4.9 10 -5.9 1.9 -1.1 3.7 -2.2 3.8 -2.6 0.2 -0.5 1.2 -0.8 2.2 -0.8 1 0 2.2 -0.4 2.5 -1 1.2 -2 3.5 -1 3.5 1.4 0 1.4 0.5 2.8 1 3.1 0.5 0.3 1 2.1 1 4 0 1.9 0.5 3.7 1 4 0.6 0.3 1 2.6 1 5 0 2.4 0.5 4.7 1 5 0.6 0.3 1 2.6 1 5 0 2.4 0.4 4.6 1 5 1.1 0.7 -0.8 5.5 -2.2 5.5 -0.5 0 -4 3 -7.7 6.8 -3.7 3.7 -10.7 10.4 -15.6 14.9 l-8.9 8.3 -10.1 0 -10.1 0 -2.2 11.3 c-1.7 9 -2.6 11.5 -4.4 12.7 -1.2 0.8 -3.9 3.2 -6 5.3 -2.2 2 -4.3 3.7 -4.8 3.7 -0.6 0 -1 0.3 -1 0.8 0 0.4 -1.6 1.8 -3.5 3.1 -1.9 1.3 -3.7 3.1 -4 4.1 -0.3 1 -1.5 2 -2.5 2.3 -1.1 0.3 -2 1.2 -2 2 0 0.8 -1.1 1.7 -2.3 2.1 -2.5 0.6 -8.1 5.6 -7.2 6.4 0.7 0.7 6.8 -2.5 15.2 -8 9.6 -6.3 16.4 -10.1 17 -9.4 0.3 0.3 -0.9 8 -2.7 17.1 -2.4 11.9 -3.7 16.5 -4.7 16.5 -0.7 0 -1.6 0.7 -1.9 1.5 -0.4 0.8 -1 1.5 -1.5 1.5 -0.5 0 -4.3 2.3 -8.5 5 -4.1 2.8 -7.9 5 -8.4 5 -0.5 0 -1.4 0.9 -2 2 -0.6 1.1 -1.9 2 -2.8 2 -1 0 -2.8 0.9 -4 2 -1.2 1.1 -2.4 2 -2.7 2 -0.3 0 -4.7 2.8 -9.7 6.3 -4.9 3.4 -10.7 7.1 -12.7 8.2 -6.9 3.7 -14.1 8.7 -14.1 9.7 0 0.5 -0.4 0.6 -1 0.3 -1 -0.6 -9.1 4.4 -12.3 7.7 -1 1 -2.5 1.8 -3.3 1.8 -0.8 0 -4.8 2.3 -8.9 5 -4.1 2.8 -7.8 5 -8.3 5 -0.5 0 -1.7 0.9 -2.7 2 -1 1.1 -2.4 2 -3.1 2 -0.7 0 -1.7 0.6 -2.1 1.3 -1.1 1.9 -9.9 7.7 -10.6 7.1 -0.3 -0.3 -1.6 0.3 -2.8 1.5 -1.3 1.2 -2.9 2.1 -3.6 2.1 -0.7 0 -1.3 0.4 -1.3 0.9 0 0.5 -1.2 1.5 -2.7 2.3 -5.3 2.7 -10.3 6 -10.3 6.8 0 0.4 -0.9 1 -2 1.3 -1.7 0.4 -2 0 -2 -2.4z"/>
  <path d="M247 312 c0 -0.5 1.4 -8.2 3.1 -17 l3.1 -16 15.7 0 15.6 0.1 -4 3.7 c-2.2 2 -6.8 6.3 -10.3 9.4 -3.4 3.1 -6.2 6.2 -6.2 6.7 0 0.6 -0.4 1.1 -1 1.1 -0.5 0 -1 0.7 -1 1.5 0 0.9 -0.6 1.2 -1.5 0.9 -0.9 -0.4 -2.3 0.4 -3.6 2 -1.1 1.4 -2.7 2.6 -3.5 2.6 -0.8 0 -1.4 0.5 -1.4 1.1 0 0.7 -1 2 -2.2 3 -2.4 2.2 -2.8 2.3 -2.8 0.9z"/>
  <path d="M52.5 285 c1 -1.1 2.4 -2 3.1 -2 0.7 0 2.1 -1.1 3.2 -2.5 1.6 -2 7.3 -7 11.7 -10.3 0.6 -0.4 1.8 -1.3 2.8 -2.1 1.5 -1.2 1.7 -1 1.7 1.8 0 2.1 -0.5 3.1 -1.5 3.1 -0.8 0 -1.5 0.6 -1.5 1.3 -0.1 2 -8.5 7.7 -11.3 7.7 -2.2 0 -2.7 0.5 -2.7 2.5 0 2.2 -0.4 2.5 -3.7 2.5 -3.5 0 -3.6 0 -1.8 -2z"/>
  <path d="M44 256.2 c0 -2.3 0.8 -3.5 4 -5.6 4.4 -2.9 10 -3.5 10 -1.1 0 0.8 -0.5 1.5 -1.1 1.5 -0.7 0 -3.2 1.5 -5.8 3.3 -7.2 5.2 -7.1 5.1 -7.1 1.9z"/>
  <path d="M19.3 240 c0.8 -1.2 2.5 -2.9 3.7 -3.7 2.1 -1.5 2.1 -1.4 1.8 1.8 -0.3 3 -0.7 3.4 -3.7 3.7 -3.2 0.3 -3.3 0.3 -1.8 -1.8z"/>
  <path d="M262 236.1 c0 -0.5 1.2 -1.8 2.8 -2.9 3 -2.2 16.2 -10.2 16.7 -10.2 0.2 0 3.1 -1.6 6.5 -3.5 3.4 -1.9 6.6 -3.5 7.1 -3.5 0.5 0 0.9 1.1 0.9 2.5 0 1.4 0.5 2.5 1 2.5 0.6 0 1 2.3 1 5 0 2.8 0.5 5 1 5 0.6 0 1 1.4 1 3 l0 3 -19 0 c-11.1 0 -19 -0.4 -19 -0.9z"/>
  <path d="M29 231.4 c0 -0.8 2.2 -2.7 4.8 -4.2 2.1 -1.1 2.2 -1 2.2 1.8 0 2.8 -0.3 3 -3.5 3 -1.9 0 -3.5 -0.3 -3.5 -0.6z"/>
  <path d="M265.3 216.5 c0.6 -2.4 1.8 -7.4 2.2 -9.5 0.1 -0.8 0.5 -3.2 0.9 -5.2 l0.7 -3.8 8.7 0 8.7 0 -5.9 5.3 c-3.2 2.8 -8.1 7.4 -10.9 10.2 -3.1 3.1 -4.8 4.2 -4.4 3z"/>
  <path d="M57.6 205.5 c0.9 -1.4 2 -2.5 2.4 -2.5 0.4 0 3.5 -2.6 6.7 -5.8 3.3 -3.2 7.4 -6.8 9.1 -8.1 l3.2 -2.2 0 2.9 c0 2.4 -1.3 4.1 -6.4 8.6 -3.5 3.1 -7.1 5.6 -7.9 5.6 -0.8 0 -1.7 0.9 -2 2 -0.4 1.5 -1.4 2 -3.6 2 -3.1 0 -3.1 0 -1.5 -2.5z"/>
  <path d="M23.2 192.8 c0.2 -1.9 1 -2.4 4.1 -2.6 4.5 -0.4 5.1 1.7 1 3.6 -4 1.8 -5.5 1.5 -5.1 -1z"/>
  <path d="M27 160 c0 -0.5 0.5 -1 1 -1 0.6 0 1 -0.6 1 -1.3 0 -1.4 3.1 -4.7 4.3 -4.7 0.9 0 0.9 4.3 0.1 6.4 -0.7 1.8 -6.4 2.3 -6.4 0.6z"/>
  <path d="M276 155 c0 -1.5 4.6 -3.4 6.4 -2.7 0.9 0.4 1.6 1.3 1.6 2.2 0 1.1 -1.1 1.5 -4 1.5 -2.2 0 -4 -0.5 -4 -1z"/>
  <path d="M51 134 c0 -0.5 0.5 -1 1 -1 0.6 0 1 -0.6 1 -1.4 0 -0.7 1.1 -2.1 2.5 -3 2.4 -1.6 2.5 -1.6 2.5 0.8 0 4.2 -1 5.6 -4.1 5.6 -1.6 0 -2.9 -0.4 -2.9 -1z"/>
 </g>
 <g fill="#f8ae31">
  <path d="M185.7 521.6 c-1.5 -1.4 -3.5 -2.9 -4.4 -3.5 -1.4 -0.7 -1.7 -2.2 -1.7 -6.7 l0.1 -5.9 6.4 -5.9 c3.5 -3.2 8.2 -7.2 10.4 -8.8 2.2 -1.6 6.4 -5.2 9.3 -7.9 2.8 -2.7 5.5 -4.9 5.7 -4.9 0.3 0 3.9 -2.8 8 -6.2 4 -3.5 9.4 -8 11.9 -10.1 l4.6 -3.8 0 3.5 c0 1.9 0.5 3.8 1 4.1 0.6 0.3 1 2.6 1 5 0 2.4 0.5 4.7 1 5 0.6 0.3 1 2.5 1 4.8 0.1 4.3 2.1 8.3 3.5 6.9 0.5 -0.4 0.5 -0.2 0.1 0.5 -0.6 1.1 -13.1 10.3 -21 15.5 -2.2 1.5 -4.6 3.1 -5.1 3.6 -0.6 0.5 -3.5 2.6 -6.5 4.6 -3 2.1 -5.4 4.4 -5.2 5.2 0.2 1 -0.7 1.4 -2.8 1.4 -1.8 0 -3.3 0.6 -3.6 1.5 -0.4 0.8 -1.5 1.5 -2.5 1.5 -1 0 -1.9 0.7 -1.9 1.5 0 2.5 -6.3 1.9 -9.3 -0.9z"/>
  <path d="M120.3 494.2 c-0.7 -0.7 -1.3 -1.1 -1.3 -0.7 0 0.3 -1.2 -0.6 -2.7 -2.2 -1.6 -1.5 -2.8 -3 -2.8 -3.4 0 -0.4 -0.3 -1.1 -0.7 -1.5 -1.1 -1.1 -1 -6.2 0.2 -6.9 0.6 -0.3 1 -1.4 1 -2.5 0 -1.9 6.7 -8.4 15.9 -15.5 2.8 -2.2 12.5 -10.1 21.5 -17.5 8.9 -7.4 18.2 -15.1 20.6 -17 2.4 -1.9 11 -8.9 19 -15.5 8.1 -6.6 16.9 -13.6 19.4 -15.5 2.6 -1.9 5.2 -4 5.9 -4.5 2.5 -2.2 8.2 -5.8 7 -4.5 -1.5 1.7 -1.7 9.6 -0.3 10.5 0.6 0.3 1 2.6 1 5 0 2.4 0.5 4.7 1 5 0.6 0.3 1 2.6 1 5 0 2.4 0.5 4.7 1 5 0.6 0.3 1 2.6 1 5 0 2.4 0.5 4.5 1.1 4.7 1 0.3 -3 3.5 -9 7.3 -5.5 3.5 -10.7 7.1 -11.2 7.8 -0.4 0.5 -1.6 1.4 -2.7 2 -2.5 1.4 -16.5 10.8 -17.2 11.6 -0.3 0.3 -2.2 1.5 -4.2 2.5 -2.1 1 -3.5 2.2 -3.3 2.7 0.3 0.4 -0.5 0.9 -1.7 1.1 -1.2 0.2 -2.7 1.2 -3.3 2.3 -0.6 1.2 -1.8 1.9 -2.8 1.7 -0.9 -0.2 -2 0.4 -2.3 1.2 -0.3 0.9 -1.5 1.6 -2.5 1.6 -1 0 -1.9 0.5 -1.9 1 0 0.6 -0.7 1 -1.6 1 -0.8 0 -1.2 0.5 -0.9 1 0.3 0.6 -0.3 1 -1.4 1 -1.2 0 -2.1 0.6 -2.1 1.3 0 0.7 -1.9 2.1 -4.1 3.1 -2.3 1 -5.7 3.3 -7.7 5.2 -1.9 1.8 -4.1 3 -4.8 2.7 -0.8 -0.3 -1.4 0 -1.4 0.6 0 0.6 -0.6 1.1 -1.3 1.1 -0.7 0 -2.9 1.4 -4.7 3 -1.8 1.7 -4.2 3 -5.2 3 -1 0 -2.1 0.6 -2.4 1.3 -0.6 1.7 -7.3 1.6 -9.1 -0.1z m14.2 -11.2 l7 -4.8 -0.4 -5.4 c-0.1 -2.9 -0.7 -5.7 -1.1 -6.3 -0.4 -0.5 -0.9 -1.8 -1.1 -2.7 -0.3 -1.5 -1.6 -0.9 -6.9 3.2 -10.7 8.2 -15 12.6 -15 15.2 0 3.1 1 4.5 4 5.7 3.5 1.3 5.5 0.6 13.5 -4.9z"/>
  <path d="M70.9 447.6 c-3.4 -3 -5 -6.2 -5.4 -10.7 -0.3 -3.5 0.1 -4.3 4.8 -8.9 8.3 -8.1 11.5 -11 12.1 -11 0.3 0 1.4 -0.8 2.5 -1.7 3.7 -3.5 11.9 -10.4 17.3 -14.6 5 -3.8 13.6 -10.9 33.7 -27.7 3.6 -3.1 9.8 -8 13.6 -11 3.9 -2.9 13.6 -10.9 21.6 -17.7 12.3 -10.3 16.9 -13.6 16.9 -12 0 0.1 -1.6 8.2 -3.5 18.1 -1.9 9.8 -3.5 18 -3.5 18.2 0 0.2 5.7 0.4 12.7 0.4 12.3 0 12.7 0.1 10.3 1.7 -1.4 1 -3.3 2.5 -4.3 3.4 -0.9 0.8 -3 2.2 -4.5 3 -2.6 1.3 -18.2 11.7 -19.2 12.9 -0.3 0.3 -2.3 1.4 -4.5 2.5 -2.1 1.1 -5.7 3.8 -8 5.9 -2.2 2.2 -4.4 4 -5 4.1 -0.5 0.1 -1.8 0.3 -2.7 0.3 -1.1 0.1 -1.5 0.7 -1.2 1.7 0.4 0.9 0 1.5 -0.9 1.5 -2.4 0 -9.1 3.9 -13.7 8 -2.4 2.1 -4.9 3.6 -5.6 3.3 -0.7 -0.2 -2.2 0.5 -3.3 1.6 -1.2 1.2 -2.4 2.1 -2.9 2.1 -0.4 0 -1.5 0.9 -2.5 2 -0.9 1.1 -2.3 2 -3.1 2 -0.7 0 -3 1.6 -5 3.5 -2.1 2 -4.3 3.2 -5.1 2.9 -0.8 -0.4 -1.5 -0.1 -1.5 0.5 0 0.6 -0.6 1.1 -1.4 1.1 -0.7 0 -2.4 1 -3.8 2.3 -1.3 1.2 -4.2 3.1 -6.3 4.2 -2.2 1.1 -4.1 2.3 -4.3 2.8 -0.2 0.4 -1 0.7 -1.7 0.7 -0.8 0 -1.8 0.6 -2.2 1.3 -3.4 5.5 -15.8 7.5 -20.4 3.3z m11.6 -5.1 c2.2 -1.3 5.6 -3.2 7.5 -4.2 1.9 -1 3.7 -2 4 -2.3 1.3 -1.3 10.5 -7.7 19.5 -13.6 5.5 -3.6 11.2 -7.7 12.8 -9.2 2.7 -2.6 3.5 -5.6 1.7 -6.7 -0.5 -0.3 -1 -2.6 -1 -5 0 -2.4 -0.4 -4.7 -1 -5 -0.5 -0.3 -1 -2 -1 -3.6 0 -2.6 -0.2 -2.8 -1.9 -1.9 -1.1 0.5 -2.5 1.6 -3.3 2.2 -0.7 0.7 -3 2.6 -5 4.1 -2.1 1.5 -8.2 6.4 -13.5 10.8 -13.6 11.2 -13.2 10.9 -14.1 10.9 -0.4 0 -1.3 0.9 -2 2 -0.7 1.1 -2.3 2 -3.7 2 -1.6 0 -2.5 0.6 -2.5 1.5 0 0.9 -1.6 3 -3.6 4.7 -4.5 4 -5.9 7.3 -4.4 10.8 1 2.3 4 4.6 6.5 4.9 0.6 0 2.8 -1 5 -2.4z"/>
  <path d="M45.6 398.5 c-1 -0.8 -2.2 -1.2 -2.6 -1 -0.4 0.3 -1.4 -0.2 -2.1 -1.1 -1.7 -2 0.2 -3.4 4.9 -3.4 1.9 0 4.9 -1.1 7 -2.5 2 -1.4 4.1 -2.5 4.7 -2.5 0.6 0 2.5 -1.3 4.3 -3 1.8 -1.6 4.5 -3.3 6 -3.7 1.4 -0.3 3.3 -1.4 4.2 -2.4 1.4 -1.6 12.2 -9.2 30.4 -21.2 3.6 -2.4 9.1 -6.6 12 -9.2 2.1 -2 2.6 -2.9 1.7 -3.8 -0.6 -0.6 -1.1 -2.6 -1.1 -4.3 0 -1.8 -0.4 -3.6 -1 -3.9 -0.5 -0.3 -1 -2.3 -1 -4.4 0 -2 -0.5 -4.9 -1.2 -6.3 l-1.2 -2.6 -8.6 7 c-4.7 3.8 -10 8.1 -11.8 9.6 -1.9 1.5 -4.6 3.7 -6 4.9 -1.5 1.3 -7.2 5.9 -12.7 10.3 -5.5 4.5 -11 9 -12.1 10.1 -1.2 1 -2.5 1.9 -2.8 1.9 -0.4 0 -2 1.6 -3.7 3.5 -2.4 2.7 -3.9 3.5 -6.5 3.5 -1.9 0 -3.4 -0.2 -3.4 -0.5 0 -1.1 5.7 -6.8 8 -8 1.4 -0.7 3.7 -2.4 5 -3.7 2.9 -2.9 45.1 -38.1 50 -41.8 1.9 -1.4 6.8 -5.4 11 -9 4.2 -3.6 11.5 -9.6 16.3 -13.5 4.8 -3.8 17.2 -14 27.7 -22.5 10.4 -8.5 20.8 -16.8 23 -18.5 2.2 -1.6 5.4 -4.1 7 -5.3 3 -2.3 3 -2.4 3 -0.3 0 1.2 0.5 2.1 1 2.1 0.6 0 1 2.7 1 6 0 6 0 6 2.6 5.4 2.4 -0.6 2.6 -0.5 2.1 2.2 -7.5 39.3 -8 41.2 -9.3 40.7 -0.7 -0.3 -4.4 1.7 -8.1 4.3 -3.8 2.7 -12.9 8.8 -20.3 13.7 -7.4 4.9 -14.5 9.7 -15.8 10.8 -1.2 1 -2.6 1.9 -3 1.9 -0.4 0 -1.9 1.3 -3.3 2.9 -1.4 1.6 -3.9 3.2 -5.6 3.5 -2.1 0.5 -3 1.2 -2.7 2.1 0.4 1 0 1.2 -1.5 0.8 -1.2 -0.3 -2.1 -0.1 -2.1 0.6 0 0.6 -0.7 1.1 -1.5 1.1 -0.9 0 -1.2 0.6 -0.9 1.5 0.6 1.3 -0.6 2 -2.9 1.6 -1 -0.2 -10.6 6.5 -13.6 9.5 -1.4 1.4 -3.7 2.8 -5.3 3.1 -1.5 0.3 -3.4 1.6 -4.3 2.9 -0.8 1.3 -2.1 2.1 -2.9 1.8 -0.8 -0.3 -1.9 0.3 -2.6 1.5 -0.6 1.2 -1.7 2.1 -2.6 2.1 -1.7 0 -9.4 4.9 -9.4 6 0 0.4 -3 2.3 -6.6 4.1 -3.7 1.8 -8 4.5 -9.6 6 -1.7 1.4 -4.2 3.3 -5.6 4 -1.5 0.7 -3.8 2.1 -5.2 3 -1.4 0.9 -3.1 1.4 -3.8 1.2 -0.7 -0.3 -2.1 0.2 -3 1 -1.5 1.3 -2 1.4 -3.6 0.2z"/>
  <path d="M35.7 383.8 c-0.7 -2.5 0.2 -4.5 3.2 -7.2 2.1 -1.9 2.1 -1.9 2.1 1 0 3.6 -2.1 8.4 -3.6 8.4 -0.7 0 -1.4 -1 -1.7 -2.2z"/>
  <path d="M15.2 338 c-4.8 -4.3 -6 -7 -3.1 -7 2.2 0 4.9 2.2 4.9 3.9 0 1 4.1 1.7 6.5 1.1 0.6 -0.2 2.1 -0.5 3.5 -0.8 1.4 -0.3 3 -1.1 3.5 -1.8 2.2 -2.9 18.5 -13.9 22.8 -15.5 2 -0.7 3.7 -1.9 3.7 -2.6 0 -0.7 0.7 -1.3 1.5 -1.3 0.8 0 1.5 -0.3 1.5 -0.7 0 -0.5 2.8 -2.6 6.3 -4.7 3.4 -2.2 7.3 -5 8.7 -6.2 1.4 -1.3 3.7 -2.9 5.2 -3.7 1.5 -0.7 7.2 -4.5 12.7 -8.3 10 -6.9 10 -6.9 10.1 -11.1 0 -2.3 -0.4 -4.5 -1 -4.8 -0.5 -0.3 -1 -2.6 -1 -5 0 -2.4 -0.4 -4.7 -1 -5 -0.5 -0.3 -1 -2.6 -1 -5.1 0 -2.4 -0.3 -4.4 -0.6 -4.4 -0.9 0 -10.3 7.6 -30.3 24.3 -21.7 18.2 -21 17.7 -21.6 17.7 -0.2 0 -2.6 2 -5.2 4.5 -3.3 3 -5.7 4.5 -7.5 4.5 -2.2 0 -2.8 0.5 -2.8 2.3 0 3.3 -8.9 10 -12.7 9.5 -2.8 -0.3 -2.7 -0.3 2.7 -5.5 3 -2.9 6 -5.3 6.5 -5.3 0.6 -0.1 3.7 -2.8 6.9 -6 3.3 -3.3 6.4 -6 7 -6 0.5 0 3.7 -2.6 7.2 -5.7 3.4 -3.2 8.6 -7.7 11.5 -10.1 3 -2.3 7 -5.6 8.9 -7.3 1.9 -1.6 7.6 -6.4 12.5 -10.6 5 -4.1 11.7 -9.9 15 -12.8 3.4 -2.9 8.8 -7.5 12.2 -10.2 6.3 -5 34 -28.1 40.4 -33.7 2 -1.7 4.3 -3.5 5.1 -4.1 1.6 -1 12.6 -10 16.3 -13.3 1.1 -0.9 3.5 -2.8 5.3 -4.1 l3.3 -2.3 0.6 2.1 c0.3 1.1 0.9 2.1 1.4 2.1 0.5 0 0.9 2.3 0.9 5 0 2.8 0.5 5 1 5 0.6 0 1 1.7 1 3.8 0 3.3 -0.8 4.5 -7.5 11.1 -4.1 4 -7.5 7.7 -7.5 8.2 0 1.7 3.1 0.9 9.3 -2.3 3.4 -1.8 6.5 -3.4 7 -3.6 0.4 -0.2 0.7 0.3 0.7 1.2 0 0.9 0.5 1.6 1 1.6 0.6 0 1 2.3 1 5 0 2.9 0.5 5 1.1 5 0.6 0 0.9 1.7 0.8 4.3 -0.3 3.2 -0.9 4.6 -2.9 5.9 -1.4 0.9 -7.4 5.1 -13.5 9.3 -6 4.2 -16.4 11.2 -23 15.7 -6.6 4.4 -12.8 8.9 -13.8 9.9 -1 1 -2.5 1.9 -3.4 1.9 -0.9 0 -3.5 2.1 -5.9 4.6 -2.4 2.5 -4.8 4.3 -5.4 3.9 -0.5 -0.3 -4.6 1.9 -9.1 4.9 -4.4 3.1 -8.5 5.6 -9 5.6 -0.5 0 -0.9 0.5 -0.9 1 0 0.6 -0.7 1 -1.5 1 -0.8 0 -1.5 0.4 -1.5 0.9 0 0.5 -1.1 1.2 -2.4 1.5 -1.4 0.3 -3.4 2 -4.6 3.6 -1.2 1.7 -2.6 2.8 -3.1 2.4 -0.5 -0.3 -4.2 1.6 -8.2 4.3 -4 2.6 -8.5 5.4 -10 6.2 -1.5 0.8 -2.7 1.8 -2.7 2.3 0 0.4 -0.7 0.8 -1.5 0.8 -0.7 0 -1.8 0.6 -2.2 1.3 -1 1.8 -11.4 8.7 -13 8.7 -0.7 0 -1.6 0.6 -2 1.3 -1.2 1.9 -6.9 5.7 -7.6 5.1 -0.7 -0.7 -6 2.8 -9.6 6.3 -1.3 1.2 -2.8 2 -3.4 1.6 -0.5 -0.3 -1.5 0 -2.1 0.8 -0.6 0.8 -2.8 1.4 -4.8 1.4 -2.8 0 -4.6 -0.8 -7.6 -3.5z"/>
  <path d="M14 272.9 c0 -2 0.5 -2.9 1.6 -2.9 0.8 0 2.2 -0.6 2.9 -1.2 3.3 -3 4.5 -3.8 5.5 -3.8 0.5 0 1 -0.4 1 -1 0 -0.5 0.7 -1 1.5 -1 0.8 0 1.5 -0.5 1.5 -1 0 -0.6 1.7 -1.8 3.8 -2.8 2 -0.9 4.2 -2.2 4.7 -2.8 0.6 -0.7 8.9 -6.4 18.5 -12.8 17.3 -11.5 27.9 -18.9 33.5 -23.4 2.2 -1.7 2.6 -2.5 1.7 -3.4 -0.7 -0.7 -1.2 -3.1 -1.2 -5.4 0 -2.4 -0.5 -4.6 -1 -4.9 -0.6 -0.3 -1 -2.5 -1 -4.9 0 -2.3 -0.4 -4.6 -0.9 -5.1 -0.5 -0.6 -1.1 -2.3 -1.3 -3.9 -0.3 -2.9 -0.3 -2.9 -10.8 6 -5.8 4.8 -15.1 13 -20.8 18.1 -8.8 7.9 -10.9 9.3 -13.8 9.3 l-3.4 0 1.6 -2.5 c0.9 -1.4 2 -2.5 2.5 -2.5 0.4 0 3 -2 5.6 -4.5 4.1 -3.9 42.5 -37.8 57.8 -51.1 2.8 -2.3 13.4 -11.6 23.7 -20.6 23.6 -20.6 28.6 -25 31.2 -26.7 1.2 -0.8 3.3 -2.5 4.9 -3.9 2.2 -2.1 2.7 -2.3 2.7 -0.9 0 0.9 0.5 1.7 1 1.7 0.6 0 1 2.3 1 5 0 2.8 0.5 5 1 5 0.6 0 1 2.2 1 4.8 l0 4.8 -14.1 13.8 c-18.1 17.7 -17.5 19 3.3 6.9 l15.4 -8.9 -0.4 3.3 c-0.3 2 0 3.3 0.7 3.3 0.7 0 1.1 2 1.1 5 0 2.8 0.5 5 1 5 0.6 0 1 1.3 1 2.8 0 2.4 -1.1 3.6 -7.1 7.7 -3.9 2.7 -7.6 5.4 -8.3 6 -0.6 0.6 -9.2 6.4 -19.1 12.9 -9.9 6.5 -18.2 12.1 -18.5 12.5 -0.3 0.3 -1.7 1.2 -3.2 2 -1.6 0.8 -2.8 1.8 -2.8 2.3 0 0.4 -0.7 0.8 -1.5 0.8 -0.8 0 -1.5 0.5 -1.5 1 0 0.6 -0.7 1 -1.5 1 -0.8 0 -1.5 0.5 -1.5 1 0 0.6 -0.4 1 -1 1 -0.5 0 -1.8 0.7 -2.7 1.6 -2 1.7 -12 8.4 -12.7 8.4 -1.3 0 -21.5 14.2 -22 15.5 -0.3 0.8 -1.7 1.5 -3.1 1.5 -1.4 0 -2.5 0.4 -2.5 0.8 0 0.4 -1.4 1.6 -3 2.6 -1.7 0.9 -4.2 2.8 -5.7 4.2 -1.4 1.3 -3.2 2.4 -4 2.4 -1.6 0 -9.3 5 -9.3 6 0 0.5 -1.3 1.3 -3 1.9 -1.6 0.5 -3 1.4 -3 1.9 0 0.5 -1.7 1.7 -3.7 2.8 -2.1 1 -5.7 3.1 -8 4.7 -2.3 1.5 -4.6 2.7 -5.1 2.7 -0.4 0 -1.9 1.1 -3.1 2.4 -1.2 1.3 -3.3 2.4 -4.7 2.4 -2 0 -2.4 -0.5 -2.4 -2.9z"/>
  <path d="M7 274 c0 -0.5 -0.5 -1 -1.1 -1 -2.3 0 -4.9 -4.3 -4.9 -8.2 0 -3.1 0.3 -3.8 2 -3.8 1.4 0 2 0.7 2 2.3 0 1.3 0.9 3.2 2 4.2 2.1 1.9 2.8 7.5 1 7.5 -0.5 0 -1 -0.4 -1 -1z"/>
  <path d="M200.3 261.3 c-1.8 -0.7 -1.6 -2.3 0.2 -2.3 0.8 0 1.5 0.7 1.5 1.5 0 0.8 -0.1 1.5 -0.2 1.4 -0.2 0 -0.9 -0.3 -1.5 -0.6z"/>
  <path d="M2 257.2 c0 -1.9 6.3 -8.4 11.8 -12.1 l3.2 -2.2 0 2.6 c0 1.9 -1.6 4.1 -5.7 8 -6 5.6 -9.3 6.9 -9.3 3.7z"/>
  <path d="M202.3 251.5 c-1.7 -1.9 -1.6 -2.5 0.2 -2.5 0.8 0 1.5 0.9 1.5 2 0 2.3 -0.1 2.4 -1.7 0.5z"/>
  <path d="M23 236.5 c3 -3.1 7 -6.5 8.8 -7.5 l3.2 -1.9 0 2.5 c0 3.9 -9.5 12.3 -14 12.4 l-3.4 0 5.4 -5.5z"/>
  <path d="M21 194 c0 -0.5 -0.6 -1 -1.3 -1 -0.7 0 -2.6 -1.3 -4.2 -3 -1.6 -1.6 -2.5 -3 -2.1 -3 0.5 0 0.3 -0.7 -0.4 -1.5 -1 -1.3 -0.9 -1.5 0.9 -1.5 2.4 0 5.1 2.1 5.1 3.9 0 0.6 1.5 1.1 3.3 1.1 2.6 0 6.6 -2.1 16.3 -8.5 7.1 -4.7 14.3 -9.4 15.9 -10.5 1.7 -1 3.5 -2.2 4 -2.7 0.6 -0.4 4.9 -3.4 9.8 -6.6 l8.7 -5.9 0 -5.4 c0 -3 -0.4 -5.4 -1 -5.4 -0.5 0 -1 -1.8 -1 -4 0 -2.2 -0.4 -4 -1 -4 -0.5 0 -1 -2.2 -1 -5 0 -2.7 -0.4 -5 -1 -5 -0.5 0 -1 -1.2 -1 -2.6 0 -2.5 -0.4 -2.2 -6.5 3.7 -3.7 3.5 -7 6.6 -7.5 6.7 -0.6 0.2 -1 0.9 -1 1.6 0 0.7 -2.5 3.7 -5.5 6.5 -3 2.9 -5.5 5.5 -5.5 5.9 -0.1 1.5 -18.9 20.2 -20.4 20.2 -0.9 0 -1.6 0.8 -1.6 1.8 0 2.5 -1.9 4.2 -4.7 4.2 -1.9 0 -2.3 0.5 -2.3 2.9 0 5.8 -3.1 8.6 -4.3 4 -0.9 -3.3 8.8 -15.3 24.6 -30.6 3.1 -3.1 5.7 -6.1 5.7 -6.8 0 -0.7 2.6 -3.6 5.7 -6.6 3.2 -3 8.2 -8.1 11.1 -11.4 3 -3.3 10.5 -11.4 16.7 -18 13.5 -14.4 16.5 -17.9 16.5 -19.5 0 -0.6 -0.8 -0.9 -1.7 -0.6 -1 0.3 -3.9 0.6 -6.6 0.8 -5 0.2 -6.2 -0.6 -10 -6.4 -3.2 -5.1 -1.4 -10.6 5.4 -16.1 5 -4.1 41.5 -27.9 54.3 -35.4 6.1 -3.6 12.1 -7.2 13.3 -7.9 1.9 -1.2 2.2 -1.2 1.7 0 -0.3 0.8 -0.1 1.7 0.5 2.1 0.6 0.3 1.1 2.6 1.1 5 0 2.4 0.5 4.7 1 5 0.6 0.3 1 3 1 5.9 0 2.8 0.4 5.6 0.9 6.2 0.5 0.5 1.1 2.1 1.3 3.6 0.2 2 -0.8 3.8 -4.2 7.5 -2.5 2.7 -5.4 6.2 -6.4 7.8 -1.1 1.7 -2.7 3.7 -3.5 4.5 -0.9 0.8 -4.3 4.7 -7.6 8.5 -3.3 3.9 -6.4 7.3 -6.9 7.6 -0.5 0.4 -0.5 1.2 -0.2 1.8 0.4 0.6 0 1.1 -0.9 1.1 -0.9 0 -1.3 0.5 -1 1 0.3 0.6 -0.1 1 -0.9 1 -0.9 0 -1.6 0.4 -1.6 0.9 0 0.6 -2.5 3.3 -5.5 6.2 -4 3.8 -5.2 5.5 -4.3 6.1 0.9 0.5 0.8 0.8 -0.5 0.8 -1 0 -1.5 0.5 -1.2 1 0.3 0.6 -0.1 1 -1 1 -0.9 0 -1.3 0.5 -1 1 0.3 0.6 0 1 -0.8 1 -1 0 -1.3 0.7 -1 2 0.4 1.6 0 2 -2.3 2 -1.5 0 -2.4 0.3 -2.1 0.7 0.4 0.3 0 1.5 -1 2.5 -2.8 3.2 1.1 2.2 7.3 -1.7 3 -1.9 5.7 -3.5 6 -3.5 0.3 0 2.5 -1.3 4.9 -3 2.4 -1.6 4.6 -3 5 -3 0.3 0 3.9 -2.2 8.1 -5 4.1 -2.7 7.7 -5 8 -5 0.2 0 2.3 -1.2 4.6 -2.6 7.5 -4.8 15 -8.3 16.4 -7.7 0.9 0.3 1.4 2 1.4 4.8 0 2.4 0.5 4.7 1 5 0.6 0.4 1 3 0.9 5.9 l-0.2 5.2 -10.6 7.2 c-5.8 3.9 -14.4 9.8 -19.1 13 -4.7 3.2 -11.6 7.7 -15.5 10.1 -3.8 2.4 -7.1 4.8 -7.3 5.3 -0.2 0.4 -1 0.8 -1.8 0.8 -0.8 0 -1.4 0.5 -1.4 1 0 0.6 -0.7 1 -1.5 1 -0.8 0 -1.5 0.4 -1.5 1 0 0.5 -1.5 1.7 -3.2 2.6 -1.8 0.9 -3.5 2 -3.8 2.4 -0.3 0.3 -3 2 -6 3.6 -3 1.6 -6.1 3.5 -6.8 4.2 -2.4 2.2 -10 7.2 -11.1 7.2 -0.6 0 -1.1 0.5 -1.1 1 0 0.6 -0.5 1 -1.1 1 -0.7 0 -5.3 2.8 -10.3 6.2 -5 3.3 -11.1 7.2 -13.6 8.6 -2.5 1.3 -5.6 3.5 -7.1 4.8 -1.4 1.3 -2.9 2.4 -3.5 2.4 -0.5 0 -2 0.9 -3.4 2 -1.4 1.1 -3.5 2 -4.7 2 -1.2 0 -2.5 0.5 -2.8 1 -0.3 0.6 -1.7 1 -3.1 1 -1.3 0 -2.4 -0.4 -2.4 -1z"/>
 </g>
 <g fill="#f89d2f">
  <path d="M122 493.5 c0 -1.4 -0.4 -1.7 -3.2 -1.9 -3.5 -0.3 -6.2 -5.8 -5.4 -10.8 0.8 -4.7 3.8 -7.8 17.9 -18.5 l10.2 -7.6 0.3 3.9 c0.2 2.1 0.8 4.3 1.3 4.9 0.5 0.5 0.9 2.6 0.9 4.7 0 2.1 0.5 4.7 1.1 5.7 2.2 3.4 0.2 6.7 -6.8 11.7 -3.8 2.6 -8 5.1 -9.5 5.6 -1.6 0.6 -2.8 1.6 -2.8 2.4 0 0.8 -0.9 1.4 -2 1.4 -1.1 0 -2 -0.7 -2 -1.5z"/>
  <path d="M73.3 448 c-1 -1.1 -2.2 -2 -2.8 -2 -0.6 0 -1.9 -1.6 -2.8 -3.5 -3.9 -8.2 -2.1 -11 17.2 -26.5 2.4 -1.9 8.6 -7 13.8 -11.2 5.1 -4.2 11 -9 13.1 -10.5 2 -1.5 3.9 -3 4.2 -3.3 2.4 -2.5 9.2 -7 10.4 -7 1.2 0 1.6 1.1 1.6 4.4 0 2.5 0.5 4.8 1 5.1 0.6 0.3 1 2.5 1 4.9 0 2.3 0.4 4.6 0.9 5.2 0.6 0.5 1.1 2.9 1.3 5.4 0.4 5.4 -0.7 6.5 -15.7 16.4 -15.6 10.2 -19.2 13 -18.8 14.3 0.3 0.7 -0.2 1 -1.4 0.7 -1 -0.3 -4.2 1.1 -7.3 3.1 -3 2 -6.5 3.8 -7.7 4.1 -1.3 0.4 -2.3 1 -2.3 1.5 0 1.7 -4 0.9 -5.7 -1.1z"/>
  <path d="M39.9 395.2 c-4.2 -4.9 -4.9 -6.6 -4.3 -10.6 0.8 -4.8 4.2 -9.7 8.8 -12.9 2.7 -1.8 18 -14.3 36.8 -30 1.4 -1.2 4.1 -3.4 6 -4.9 1.8 -1.5 7.5 -6.1 12.6 -10.2 5.2 -4.2 10 -7.6 10.8 -7.6 0.8 0 1.4 -0.4 1.4 -1 0 -0.5 0.5 -1 1 -1 0.6 0 1 1.3 1 2.9 0 1.7 0.5 3.3 1 3.6 0.6 0.3 1 2.6 1 5 0 2.4 0.5 4.7 1 5 0.6 0.3 1 2.1 1 4 0 1.9 0.4 3.7 1 4 0.5 0.3 1 2.3 0.9 4.3 0 2.7 -0.7 4.3 -2.7 6 -2.9 2.5 -8.8 6.9 -11.8 8.9 -21.1 14 -30.7 20.9 -31.2 22.5 -0.2 0.9 -1 1.4 -1.7 1.2 -1.5 -0.6 -7.5 2.2 -7.5 3.5 0 0.5 -2 1.8 -4.5 3 -2.5 1.2 -5.3 2.9 -6.3 3.9 -2.5 2.4 -12.3 2.7 -14.3 0.4z"/>
  <path d="M19 340 c0 -0.5 -0.6 -1 -1.3 -1 -2 0 -5.1 -3 -7 -6.5 -2.2 -4.4 -0.1 -9.8 6 -15.5 5.1 -4.7 21.1 -18.3 27.7 -23.5 2.2 -1.6 11.6 -9.5 21.1 -17.5 18.4 -15.4 27.6 -22.9 31.2 -25.1 3.2 -1.9 5.3 0.2 5.3 5.7 0 2.3 0.5 4.6 1 4.9 0.5 0.3 1 2.5 1 4.9 0 2.3 0.4 4.6 0.9 5.2 1 0.9 1.9 14 1.1 14.7 -4.7 3.6 -21.1 14.7 -21.8 14.7 -0.4 0 -2.6 1.5 -4.8 3.3 -2.1 1.8 -6.7 5.1 -10.1 7.2 -3.5 2.2 -6.3 4.3 -6.3 4.8 0 0.4 -0.6 0.7 -1.4 0.7 -0.8 0 -1.3 0.8 -1.2 1.7 0 1 -0.6 1.8 -1.4 1.8 -2.9 0.1 -6.5 1.8 -12 5.7 -11.2 7.9 -13 9.4 -14.6 11.7 -1.2 1.7 -1.9 2 -2.4 1 -0.7 -1 -1.4 -0.9 -3.4 0.4 -2.8 1.9 -7.6 2.3 -7.6 0.7z"/>
  <path d="M8.9 275.1 c-0.6 -0.2 -2.6 -2 -4.5 -4 -3.1 -3.3 -3.3 -4 -2.9 -8.8 0.2 -2.9 0.6 -5.7 1 -6.3 1 -1.7 56.4 -50.4 73.2 -64.4 5 -4.2 9.8 -7.6 10.7 -7.6 1.2 0 1.6 1 1.6 4.4 0 2.5 0.5 4.8 1 5.1 0.6 0.3 1 2.6 1 5 0 2.4 0.4 4.7 1 5 0.6 0.3 1 2.6 1 5 0 2.4 0.5 4.7 1 5 0.6 0.3 1 2.2 1 4.2 0 2.6 -0.7 4.1 -2.7 5.7 -5.4 4.3 -16.2 11.8 -34 23.7 -10.1 6.7 -18.1 12.5 -17.8 12.9 0.3 0.4 -0.9 1 -2.5 1.3 -1.6 0.4 -3.9 1.6 -5 2.7 -1.1 1.1 -2.4 2 -3 2 -0.5 0 -1 0.5 -1 1 0 0.6 -0.5 1 -1.1 1 -0.6 0 -1.7 0.6 -2.4 1.3 -3.5 3 -4.5 3.7 -5.9 3.7 -0.7 0 -1.6 0.7 -1.9 1.5 -0.6 1.3 -4.6 1.7 -7.8 0.6z"/>
  <path d="M16.5 190.7 c-5 -6 -5.7 -10.2 -2.6 -15.2 1 -1.6 7.7 -9.1 14.9 -16.5 7.3 -7.4 13.2 -13.8 13.2 -14.1 0 -1.2 29.6 -30.9 30.8 -30.9 0.8 0 1.2 1.6 1.2 4.5 0 2.5 0.5 4.5 1 4.5 0.6 0 1 2.3 1 5 0 2.8 0.5 5 1 5 0.6 0 1 1.8 1 4 0 2.2 0.5 4 1 4 0.6 0 1 2.3 1 5 0 2.8 0.5 5 1 5 2 0 0.9 4.3 -1.6 6.7 -1.4 1.3 -5.8 4.5 -9.7 7.1 -4 2.5 -7.6 5 -8.2 5.5 -0.5 0.4 -2.3 1.7 -4 2.7 -1.6 1.1 -8.8 5.8 -15.9 10.5 -10.4 6.9 -13.6 8.5 -16.7 8.5 -2 0 -4.4 0.2 -5.1 0.5 -0.8 0.3 -2.3 -0.5 -3.3 -1.8z"/>
 </g>
</svg>
